<svg xmlns="http://www.w3.org/2000/svg" width="146.031" height="52.954"><pattern width="69" height="69" patternUnits="userSpaceOnUse" viewBox="2.125 -70.896 69 69" overflow="visible"><polygon points="71.125,-1.896 2.125,-1.896 2.125,-70.896 71.125,-70.896" fill="none"/><polygon fill="#F7BC60" points="71.125,-1.896 2.125,-1.896 2.125,-70.896 71.125,-70.896"/><g fill="#fff"><path d="M61.772-71.653c.018.072.007.127-.026.19l-.165.128c-.05.062-.099.276-.079.362-.169.058-.01.227-.015.35l-.045.161c-.01.119.017.266.068.37.097.198.268.413.435.544.19.148.365.572.608.631.177.042.384-.104.543-.143.18-.043.397.01.571-.053.222-.079.127-.337.288-.45.104-.074.287-.01.406-.051.2-.069.339-.263.376-.46l.039-.221c.039-.103.111-.16.09-.293l-.064-.187v-.337c-.003-.2.017-.379-.078-.55-.38-.688-1.236-.929-1.975-.789-.18.034-.287.126-.442.207-.17.088-.139.166-.318.224-.081.026-.216.124-.215.224l.012.169-.03-.025"/><path d="M54.105-71.653c.018.072.007.127-.026.19l-.165.128c-.05.062-.099.276-.079.362-.169.058-.01.227-.015.35l-.045.161c-.01.119.017.266.068.37.097.198.268.413.435.544.19.148.365.572.608.631.177.042.384-.104.543-.143.18-.043.397.01.571-.053.222-.079.127-.337.288-.45.104-.074.287-.01.406-.051.2-.069.339-.263.376-.46l.039-.221c.039-.103.111-.16.09-.293l-.064-.187v-.337c-.003-.2.017-.379-.078-.55-.38-.688-1.236-.929-1.975-.789-.18.034-.287.126-.442.207-.17.088-.139.166-.318.224-.081.026-.216.124-.215.224l.012.169-.03-.025"/><path d="M46.439-71.653c.018.072.007.127-.026.19l-.165.128c-.05.062-.099.276-.079.362-.169.058-.01.227-.015.35l-.045.161c-.01.119.017.266.068.37.097.198.268.413.435.544.19.148.365.572.608.631.177.042.384-.104.543-.143.18-.043.397.01.571-.053.222-.079.127-.337.288-.45.104-.074.287-.01.406-.051.2-.069.339-.263.376-.46l.039-.221c.039-.103.111-.16.09-.293l-.064-.187v-.337c-.003-.2.017-.379-.078-.55-.38-.688-1.236-.929-1.975-.789-.18.034-.287.126-.442.207-.17.088-.139.166-.318.224-.081.026-.216.124-.215.224l.012.169-.03-.025"/><path d="M38.772-71.653c.018.072.007.127-.026.19l-.165.128c-.05.062-.099.276-.079.362-.169.058-.01.227-.015.35l-.045.161c-.01.119.017.266.068.37.097.198.268.413.435.544.19.148.365.572.608.631.177.042.384-.104.543-.143.18-.043.397.01.571-.053.222-.079.127-.337.288-.45.104-.074.287-.01.406-.051.2-.069.339-.263.376-.46l.039-.221c.039-.103.111-.16.09-.293l-.064-.187v-.337c-.003-.2.017-.379-.078-.55-.38-.688-1.236-.929-1.975-.789-.18.034-.287.126-.442.207-.17.088-.139.166-.318.224-.081.026-.216.124-.215.224l.012.169-.03-.025"/><path d="M31.105-71.653c.018.072.007.127-.026.19l-.165.128c-.05.062-.099.276-.079.362-.169.058-.01.227-.015.35l-.045.161c-.01.119.017.266.068.37.097.198.268.413.435.544.19.148.365.572.608.631.177.042.384-.104.543-.143.18-.043.397.01.571-.053.222-.079.127-.337.288-.45.104-.074.287-.01.406-.051.2-.069.339-.263.376-.46l.039-.221c.039-.103.111-.16.09-.293l-.064-.187v-.337c-.003-.2.017-.379-.078-.55-.38-.688-1.236-.929-1.975-.789-.18.034-.287.126-.442.207-.17.088-.139.166-.318.224-.081.026-.216.124-.215.224l.012.169-.03-.025"/><path d="M23.439-71.653c.018.072.007.127-.026.19l-.165.128c-.05.062-.099.276-.079.362-.169.058-.01.227-.015.35l-.045.161c-.01.119.017.266.068.37.097.198.268.413.435.544.19.148.365.572.608.631.177.042.384-.104.543-.143.18-.043.397.01.571-.053.222-.079.127-.337.288-.45.104-.074.287-.01.406-.051.2-.069.339-.263.376-.46l.039-.221c.039-.103.111-.16.09-.293l-.064-.187v-.337c-.003-.2.017-.379-.078-.55-.38-.688-1.236-.929-1.975-.789-.18.034-.287.126-.442.207-.17.088-.139.166-.318.224-.081.026-.216.124-.215.224l.012.169-.03-.025"/><path d="M15.772-71.653c.018.072.007.127-.026.19l-.165.128c-.05.062-.099.276-.079.362-.169.058-.01.227-.015.35l-.045.161c-.01.119.017.266.068.37.097.198.268.413.435.544.19.148.365.572.608.631.177.042.384-.104.543-.143.18-.043.397.01.571-.053.222-.079.127-.337.288-.45.104-.074.287-.01.406-.051.2-.069.339-.263.376-.46l.039-.221c.039-.103.111-.16.09-.293l-.064-.187v-.337c-.003-.2.017-.379-.078-.55-.38-.688-1.236-.929-1.975-.789-.18.034-.287.126-.442.207-.17.088-.139.166-.318.224-.081.026-.216.124-.215.224l.012.169-.03-.025"/><path d="M8.105-71.653c.018.072.007.127-.026.19l-.165.128c-.05.062-.099.276-.079.362-.169.058-.01.227-.015.35l-.045.161c-.01.119.017.266.068.37.097.198.268.413.435.544.19.148.365.572.608.631.177.042.384-.104.543-.143.18-.043.397.01.571-.053.222-.079.127-.337.288-.45.104-.074.287-.01.406-.051.2-.069.339-.263.376-.46l.039-.221c.039-.103.111-.16.09-.293l-.064-.187v-.337c-.003-.2.017-.379-.078-.55-.38-.688-1.236-.929-1.975-.789-.18.034-.287.126-.442.207-.17.088-.139.166-.318.224-.081.026-.216.124-.215.224l.012.169-.03-.025"/><path d="M.439-71.653c.018.072.008.127-.026.19l-.165.128c-.051.062-.099.276-.079.362-.169.058-.01.227-.015.35l-.045.161c-.01.119.017.266.068.37.097.198.268.413.435.544.19.148.365.572.608.631.177.042.384-.104.543-.143.18-.043.397.01.571-.053.222-.079.127-.337.288-.45.104-.074.287-.01.406-.051.2-.07.339-.263.376-.46l.039-.221c.038-.103.111-.16.09-.293l-.064-.187v-.337c-.003-.2.017-.379-.078-.55-.38-.688-1.236-.929-1.975-.789-.18.034-.287.126-.442.207-.17.088-.139.166-.318.224-.081.026-.215.124-.215.224l.012.169-.03-.025"/></g><path fill="#fff" d="M69.439-71.653c.018.072.008.127-.026.19l-.165.128c-.051.062-.099.276-.079.362-.169.058-.01.227-.015.35l-.045.161c-.01.119.017.266.068.37.097.198.268.413.435.544.19.148.365.572.608.631.177.042.384-.104.543-.143.18-.043.397.01.571-.053.222-.079.127-.337.288-.45.104-.074.287-.01.406-.051.2-.07.339-.263.376-.46l.039-.221c.038-.103.111-.16.09-.293l-.064-.187v-.337c-.003-.2.017-.379-.078-.55-.38-.688-1.236-.929-1.975-.789-.18.034-.287.126-.442.207-.17.088-.139.166-.318.224-.081.026-.215.124-.215.224l.012.169-.03-.025"/><path fill="#fff" d="M.495-71.653c.018.072.008.127-.026.19l-.165.128c-.051.062-.099.276-.079.362-.169.058-.01.227-.015.35l-.045.161c-.01.119.017.266.068.37.097.198.268.413.435.544.19.148.365.572.608.631.177.042.384-.104.543-.143.18-.043.397.01.571-.053.222-.079.127-.337.288-.45.104-.074.287-.01.406-.051.2-.07.339-.263.376-.46l.039-.221c.038-.103.111-.16.09-.293l-.064-.187v-.337c-.003-.2.017-.379-.078-.55-.38-.688-1.236-.929-1.975-.789-.18.034-.287.126-.442.207-.17.088-.139.166-.318.224-.081.026-.215.124-.215.224l.013.17-.03-.025"/><g fill="#fff"><path d="M69.439-64.001c.018.072.007.127-.026.19l-.165.128c-.05.062-.099.276-.079.362-.169.058-.01.227-.015.35l-.045.161c-.01.119.017.266.068.37.097.198.268.413.435.544.19.148.365.572.608.631.177.042.384-.104.543-.143.18-.043.397.01.571-.053.222-.079.127-.337.288-.45.104-.074.287-.01.406-.051.2-.069.339-.263.376-.46l.039-.221c.039-.103.111-.16.09-.293l-.064-.187v-.337c-.003-.2.017-.379-.078-.55-.38-.688-1.236-.929-1.975-.789-.18.034-.287.126-.442.207-.17.088-.139.166-.318.224-.081.026-.216.124-.215.224l.012.169-.03-.025"/><path d="M61.778-64.001c.018.072.007.127-.026.19l-.165.128c-.05.062-.099.276-.079.362-.169.058-.009.227-.015.35l-.045.161c-.01.119.017.266.068.37.097.198.268.413.435.544.19.148.365.572.608.631.177.042.384-.104.543-.143.18-.043.397.01.571-.053.222-.079.127-.337.288-.45.104-.074.287-.01.406-.051.2-.069.339-.263.376-.46l.039-.221c.039-.103.111-.16.09-.293l-.064-.187v-.337c-.003-.2.017-.379-.078-.55-.38-.688-1.236-.929-1.975-.789-.18.034-.287.126-.442.207-.17.088-.139.166-.318.224-.081.026-.216.124-.215.224l.012.169-.03-.025"/><path d="M54.118-64.001c.018.072.007.127-.026.19l-.165.128c-.05.062-.099.276-.079.362-.169.058-.009.227-.015.35l-.045.161c-.01.119.017.266.068.37.097.198.268.413.435.544.19.148.365.572.608.631.177.042.384-.104.543-.143.18-.043.397.01.571-.053.222-.079.127-.337.288-.45.104-.074.287-.01.406-.051.2-.069.339-.263.376-.46l.039-.221c.039-.103.111-.16.09-.293l-.064-.187v-.337c-.003-.2.017-.379-.078-.55-.38-.688-1.236-.929-1.975-.789-.18.034-.287.126-.442.207-.17.088-.139.166-.318.224-.081.026-.216.124-.215.224l.012.169-.03-.025"/><path d="M46.458-64.001c.018.072.007.127-.026.19l-.165.128c-.05.062-.099.276-.079.362-.169.058-.009.227-.015.35l-.045.161c-.01.119.017.266.068.37.097.198.268.413.435.544.19.148.365.572.608.631.177.042.384-.104.543-.143.18-.043.397.01.571-.053.222-.079.127-.337.288-.45.104-.074.287-.01.406-.051.2-.069.339-.263.376-.46l.039-.221c.039-.103.111-.16.09-.293l-.064-.187v-.337c-.003-.2.017-.379-.078-.55-.38-.688-1.236-.929-1.975-.789-.18.034-.287.126-.442.207-.17.088-.139.166-.318.224-.081.026-.216.124-.215.224l.012.169-.03-.025"/><path d="M38.797-64.001c.018.072.007.127-.026.19l-.165.128c-.05.062-.099.276-.079.362-.169.058-.009.227-.015.35l-.045.161c-.01.119.017.266.068.37.097.198.268.413.435.544.19.148.365.572.608.631.177.042.384-.104.543-.143.18-.043.397.01.571-.053.222-.079.127-.337.288-.45.104-.074.287-.01.406-.051.2-.069.339-.263.376-.46l.039-.221c.039-.103.111-.16.09-.293l-.064-.187v-.337c-.003-.2.017-.379-.078-.55-.38-.688-1.236-.929-1.975-.789-.18.034-.287.126-.442.207-.17.088-.139.166-.318.224-.081.026-.216.124-.215.224l.012.169-.03-.025"/><path d="M31.137-64.001c.018.072.007.127-.026.19l-.165.128c-.05.062-.099.276-.079.362-.169.058-.009.227-.015.35l-.045.161c-.01.119.017.266.068.37.097.198.268.413.435.544.19.148.365.572.608.631.177.042.384-.104.543-.143.18-.043.397.01.571-.053.222-.079.127-.337.288-.45.104-.074.287-.01.406-.051.2-.069.339-.263.376-.46l.039-.221c.039-.103.111-.16.09-.293l-.064-.187v-.337c-.003-.2.017-.379-.078-.55-.38-.688-1.236-.929-1.975-.789-.18.034-.287.126-.442.207-.17.088-.139.166-.318.224-.081.026-.216.124-.215.224l.012.169-.03-.025"/><path d="M23.477-64.001c.018.072.007.127-.026.19l-.165.128c-.05.062-.099.276-.079.362-.169.058-.009.227-.015.35l-.045.161c-.01.119.017.266.068.37.097.198.268.413.435.544.19.148.365.572.608.631.177.042.384-.104.543-.143.18-.043.397.01.571-.053.222-.079.127-.337.288-.45.104-.074.287-.01.406-.051.2-.069.339-.263.376-.46l.039-.221c.039-.103.111-.16.09-.293l-.064-.187v-.337c-.003-.2.017-.379-.078-.55-.38-.688-1.236-.929-1.975-.789-.18.034-.287.126-.442.207-.17.088-.139.166-.318.224-.081.026-.216.124-.215.224l.012.169-.03-.025"/><path d="M15.816-64.001c.018.072.007.127-.026.19l-.165.128c-.05.062-.099.276-.079.362-.169.058-.009.227-.015.35l-.045.161c-.01.119.017.266.068.37.097.198.268.413.435.544.19.148.365.572.608.631.177.042.384-.104.543-.143.18-.043.397.01.571-.053.222-.079.127-.337.288-.45.104-.074.287-.01.406-.051.2-.069.339-.263.376-.46l.039-.221c.039-.103.111-.16.09-.293l-.064-.187v-.337c-.003-.2.017-.379-.078-.55-.38-.688-1.236-.929-1.975-.789-.18.034-.287.126-.442.207-.17.088-.139.166-.318.224-.081.026-.216.124-.215.224l.012.169-.03-.025"/><path d="M8.156-64.001c.018.072.007.127-.026.19l-.165.128c-.05.062-.099.276-.079.362-.169.058-.009.227-.015.35l-.045.161c-.01.119.017.266.068.37.097.198.268.413.435.544.19.148.365.572.608.631.177.042.384-.104.543-.143.18-.043.397.01.571-.053.222-.079.127-.337.288-.45.104-.074.287-.01.406-.051.2-.069.339-.263.376-.46l.039-.221c.039-.103.111-.16.09-.293l-.064-.187v-.337c-.003-.2.017-.379-.078-.55-.38-.688-1.236-.929-1.975-.789-.18.034-.287.126-.442.207-.17.088-.139.166-.318.224-.081.026-.216.124-.215.224l.012.169-.03-.025"/><path d="M.495-64.001c.018.072.007.127-.026.19l-.165.128c-.05.062-.099.276-.079.362-.169.058-.01.227-.015.35l-.045.161c-.01.119.017.266.068.37.097.198.268.413.435.544.19.148.365.572.608.631.177.042.384-.104.543-.143.181-.042.398.011.572-.052.222-.079.127-.337.288-.45.104-.074.287-.01.406-.051.2-.069.339-.263.376-.46l.039-.221c.039-.103.111-.16.09-.293l-.064-.187v-.337c-.003-.2.017-.379-.078-.55-.38-.688-1.236-.929-1.975-.789-.18.034-.287.126-.442.207-.17.088-.139.166-.318.224-.081.026-.216.124-.215.224l.012.169-.03-.025"/><path d="M69.439-56.348c.018.072.007.127-.026.19l-.165.128c-.05.062-.099.276-.079.362-.169.058-.01.227-.015.35l-.045.161c-.01.119.017.266.068.37.097.198.268.413.435.544.19.148.365.572.608.631.177.042.384-.104.543-.143.18-.043.397.01.571-.053.222-.079.127-.337.288-.45.104-.074.287-.01.406-.051.2-.069.339-.263.376-.46l.039-.221c.039-.103.111-.16.09-.293l-.064-.187v-.337c-.003-.2.017-.379-.078-.55-.38-.688-1.236-.929-1.975-.789-.18.034-.287.126-.442.207-.17.088-.139.166-.318.224-.081.026-.216.124-.215.224l.012.169-.03-.025"/><path d="M61.778-56.348c.018.072.007.127-.026.19l-.165.128c-.05.062-.099.276-.079.362-.169.058-.009.227-.015.35l-.045.161c-.01.119.017.266.068.37.097.198.268.413.435.544.19.148.365.572.608.631.177.042.384-.104.543-.143.18-.043.397.01.571-.053.222-.079.127-.337.288-.45.104-.074.287-.01.406-.051.2-.069.339-.263.376-.46l.039-.221c.039-.103.111-.16.09-.293l-.064-.187v-.337c-.003-.2.017-.379-.078-.55-.38-.688-1.236-.929-1.975-.789-.18.034-.287.126-.442.207-.17.088-.139.166-.318.224-.081.026-.216.124-.215.224l.012.169-.03-.025"/><path d="M54.118-56.348c.018.072.007.127-.026.19l-.165.128c-.05.062-.099.276-.079.362-.169.058-.009.227-.015.35l-.045.161c-.01.119.017.266.068.37.097.198.268.413.435.544.19.148.365.572.608.631.177.042.384-.104.543-.143.18-.043.397.01.571-.053.222-.079.127-.337.288-.45.104-.074.287-.01.406-.051.2-.069.339-.263.376-.46l.039-.221c.039-.103.111-.16.09-.293l-.064-.187v-.337c-.003-.2.017-.379-.078-.55-.38-.688-1.236-.929-1.975-.789-.18.034-.287.126-.442.207-.17.088-.139.166-.318.224-.081.026-.216.124-.215.224l.012.169-.03-.025"/><path d="M46.458-56.348c.018.072.007.127-.026.19l-.165.128c-.05.062-.099.276-.079.362-.169.058-.009.227-.015.35l-.045.161c-.01.119.017.266.068.37.097.198.268.413.435.544.19.148.365.572.608.631.177.042.384-.104.543-.143.18-.043.397.01.571-.053.222-.079.127-.337.288-.45.104-.074.287-.01.406-.051.2-.069.339-.263.376-.46l.039-.221c.039-.103.111-.16.09-.293l-.064-.187v-.337c-.003-.2.017-.379-.078-.55-.38-.688-1.236-.929-1.975-.789-.18.034-.287.126-.442.207-.17.088-.139.166-.318.224-.081.026-.216.124-.215.224l.012.169-.03-.025"/><path d="M38.797-56.348c.018.072.007.127-.026.19l-.165.128c-.05.062-.099.276-.079.362-.169.058-.009.227-.015.35l-.045.161c-.01.119.017.266.068.37.097.198.268.413.435.544.19.148.365.572.608.631.177.042.384-.104.543-.143.18-.043.397.01.571-.053.222-.079.127-.337.288-.45.104-.074.287-.01.406-.051.2-.069.339-.263.376-.46l.039-.221c.039-.103.111-.16.09-.293l-.064-.187v-.337c-.003-.2.017-.379-.078-.55-.38-.688-1.236-.929-1.975-.789-.18.034-.287.126-.442.207-.17.088-.139.166-.318.224-.081.026-.216.124-.215.224l.012.169-.03-.025"/><path d="M31.137-56.348c.018.072.007.127-.026.19l-.165.128c-.05.062-.099.276-.079.362-.169.058-.009.227-.015.35l-.045.161c-.01.119.017.266.068.37.097.198.268.413.435.544.19.148.365.572.608.631.177.042.384-.104.543-.143.18-.043.397.01.571-.053.222-.079.127-.337.288-.45.104-.074.287-.01.406-.051.2-.069.339-.263.376-.46l.039-.221c.039-.103.111-.16.09-.293l-.064-.187v-.337c-.003-.2.017-.379-.078-.55-.38-.688-1.236-.929-1.975-.789-.18.034-.287.126-.442.207-.17.088-.139.166-.318.224-.081.026-.216.124-.215.224l.012.169-.03-.025"/><path d="M23.477-56.348c.018.072.007.127-.026.19l-.165.128c-.05.062-.099.276-.079.362-.169.058-.009.227-.015.35l-.045.161c-.01.119.017.266.068.37.097.198.268.413.435.544.19.148.365.572.608.631.177.042.384-.104.543-.143.18-.043.397.01.571-.053.222-.079.127-.337.288-.45.104-.074.287-.01.406-.051.2-.069.339-.263.376-.46l.039-.221c.039-.103.111-.16.09-.293l-.064-.187v-.337c-.003-.2.017-.379-.078-.55-.38-.688-1.236-.929-1.975-.789-.18.034-.287.126-.442.207-.17.088-.139.166-.318.224-.081.026-.216.124-.215.224l.012.169-.03-.025"/><path d="M15.816-56.348c.018.072.007.127-.026.19l-.165.128c-.05.062-.099.276-.079.362-.169.058-.009.227-.015.35l-.045.161c-.01.119.017.266.068.37.097.198.268.413.435.544.19.148.365.572.608.631.177.042.384-.104.543-.143.18-.043.397.01.571-.053.222-.079.127-.337.288-.45.104-.074.287-.01.406-.051.2-.069.339-.263.376-.46l.039-.221c.039-.103.111-.16.09-.293l-.064-.187v-.337c-.003-.2.017-.379-.078-.55-.38-.688-1.236-.929-1.975-.789-.18.034-.287.126-.442.207-.17.088-.139.166-.318.224-.081.026-.216.124-.215.224l.012.169-.03-.025"/><path d="M8.156-56.348c.018.072.007.127-.026.19l-.165.128c-.05.062-.099.276-.079.362-.169.058-.009.227-.015.35l-.045.161c-.01.119.017.266.068.37.097.198.268.413.435.544.19.148.365.572.608.631.177.042.384-.104.543-.143.18-.043.397.01.571-.053.222-.079.127-.337.288-.45.104-.074.287-.01.406-.051.2-.069.339-.263.376-.46l.039-.221c.039-.103.111-.16.09-.293l-.064-.187v-.337c-.003-.2.017-.379-.078-.55-.38-.688-1.236-.929-1.975-.789-.18.034-.287.126-.442.207-.17.088-.139.166-.318.224-.081.026-.216.124-.215.224l.012.169-.03-.025"/><path d="M.495-56.348c.018.072.007.127-.026.19l-.165.128c-.05.062-.099.276-.079.362-.169.058-.01.227-.015.35l-.045.161c-.01.119.017.266.068.37.097.198.268.413.435.544.19.148.365.572.608.631.177.042.384-.104.543-.143.18-.043.397.01.571-.053.222-.079.127-.337.288-.45.104-.074.287-.01.406-.051.2-.069.339-.263.376-.46l.039-.221c.039-.103.111-.16.09-.293l-.064-.187v-.337c-.003-.2.017-.379-.078-.55-.38-.688-1.236-.929-1.975-.789-.18.034-.287.126-.442.207-.17.088-.139.166-.318.224-.081.026-.216.124-.215.224l.013.171-.03-.025"/><path d="M69.439-48.695c.018.072.007.127-.026.19l-.165.128c-.05.062-.099.276-.079.362-.169.058-.01.227-.015.35l-.045.161c-.01.119.017.266.068.37.097.198.268.413.435.544.19.148.365.572.608.631.177.042.384-.104.543-.143.18-.043.397.01.571-.053.222-.079.127-.337.288-.45.104-.074.287-.01.406-.051.2-.069.339-.263.376-.46l.039-.221c.039-.103.111-.16.09-.293l-.064-.187v-.337c-.003-.2.017-.379-.078-.55-.38-.688-1.236-.929-1.975-.789-.18.034-.287.126-.442.207-.17.088-.139.166-.318.224-.081.026-.216.124-.215.224l.012.169-.03-.025"/><path d="M61.778-48.695c.018.072.007.127-.026.19l-.165.128c-.05.062-.099.276-.079.362-.169.058-.009.227-.015.35l-.045.161c-.01.119.017.266.068.37.097.198.268.413.435.544.19.148.365.572.608.631.177.042.384-.104.543-.143.18-.043.397.01.571-.053.222-.079.127-.337.288-.45.104-.074.287-.01.406-.051.2-.069.339-.263.376-.46l.039-.221c.039-.103.111-.16.09-.293l-.064-.187v-.337c-.003-.2.017-.379-.078-.55-.38-.688-1.236-.929-1.975-.789-.18.034-.287.126-.442.207-.17.088-.139.166-.318.224-.081.026-.216.124-.215.224l.012.169-.03-.025"/><path d="M54.118-48.695c.018.072.007.127-.026.19l-.165.128c-.05.062-.099.276-.079.362-.169.058-.009.227-.015.35l-.045.161c-.01.119.017.266.068.37.097.198.268.413.435.544.19.148.365.572.608.631.177.042.384-.104.543-.143.18-.043.397.01.571-.053.222-.079.127-.337.288-.45.104-.074.287-.01.406-.051.2-.069.339-.263.376-.46l.039-.221c.039-.103.111-.16.09-.293l-.064-.187v-.337c-.003-.2.017-.379-.078-.55-.38-.688-1.236-.929-1.975-.789-.18.034-.287.126-.442.207-.17.088-.139.166-.318.224-.081.026-.216.124-.215.224l.012.169-.03-.025"/><path d="M46.458-48.695c.018.072.007.127-.026.19l-.165.128c-.05.062-.099.276-.079.362-.169.058-.009.227-.015.35l-.045.161c-.01.119.017.266.068.37.097.198.268.413.435.544.19.148.365.572.608.631.177.042.384-.104.543-.143.18-.043.397.01.571-.053.222-.079.127-.337.288-.45.104-.074.287-.01.406-.051.2-.069.339-.263.376-.46l.039-.221c.039-.103.111-.16.09-.293l-.064-.187v-.337c-.003-.2.017-.379-.078-.55-.38-.688-1.236-.929-1.975-.789-.18.034-.287.126-.442.207-.17.088-.139.166-.318.224-.081.026-.216.124-.215.224l.012.169-.03-.025"/><path d="M38.797-48.695c.018.072.007.127-.026.19l-.165.128c-.05.062-.099.276-.079.362-.169.058-.009.227-.015.35l-.045.161c-.01.119.017.266.068.37.097.198.268.413.435.544.19.148.365.572.608.631.177.042.384-.104.543-.143.18-.043.397.01.571-.053.222-.079.127-.337.288-.45.104-.074.287-.01.406-.051.2-.069.339-.263.376-.46l.039-.221c.039-.103.111-.16.09-.293l-.064-.187v-.337c-.003-.2.017-.379-.078-.55-.38-.688-1.236-.929-1.975-.789-.18.034-.287.126-.442.207-.17.088-.139.166-.318.224-.081.026-.216.124-.215.224l.012.169-.03-.025"/><path d="M31.137-48.695c.018.072.007.127-.026.19l-.165.128c-.05.062-.099.276-.079.362-.169.058-.009.227-.015.35l-.045.161c-.01.119.017.266.068.37.097.198.268.413.435.544.19.148.365.572.608.631.177.042.384-.104.543-.143.18-.043.397.01.571-.053.222-.079.127-.337.288-.45.104-.074.287-.01.406-.051.2-.069.339-.263.376-.46l.039-.221c.039-.103.111-.16.09-.293l-.064-.187v-.337c-.003-.2.017-.379-.078-.55-.38-.688-1.236-.929-1.975-.789-.18.034-.287.126-.442.207-.17.088-.139.166-.318.224-.081.026-.216.124-.215.224l.012.169-.03-.025"/><path d="M23.477-48.695c.018.072.007.127-.026.19l-.165.128c-.05.062-.099.276-.079.362-.169.058-.009.227-.015.35l-.045.161c-.01.119.017.266.068.37.097.198.268.413.435.544.19.148.365.572.608.631.177.042.384-.104.543-.143.18-.043.397.01.571-.053.222-.079.127-.337.288-.45.104-.074.287-.01.406-.051.2-.069.339-.263.376-.46l.039-.221c.039-.103.111-.16.09-.293l-.064-.187v-.337c-.003-.2.017-.379-.078-.55-.38-.688-1.236-.929-1.975-.789-.18.034-.287.126-.442.207-.17.088-.139.166-.318.224-.081.026-.216.124-.215.224l.012.169-.03-.025"/><path d="M15.816-48.695c.018.072.007.127-.026.19l-.165.128c-.05.062-.099.276-.079.362-.169.058-.009.227-.015.35l-.045.161c-.01.119.017.266.068.37.097.198.268.413.435.544.19.148.365.572.608.631.177.042.384-.104.543-.143.18-.043.397.01.571-.053.222-.079.127-.337.288-.45.104-.074.287-.01.406-.051.2-.069.339-.263.376-.46l.039-.221c.039-.103.111-.16.09-.293l-.064-.187v-.337c-.003-.2.017-.379-.078-.55-.38-.688-1.236-.929-1.975-.789-.18.034-.287.126-.442.207-.17.088-.139.166-.318.224-.081.026-.216.124-.215.224l.012.169-.03-.025"/><path d="M8.156-48.695c.018.072.007.127-.026.19l-.165.128c-.05.062-.099.276-.079.362-.169.058-.009.227-.015.35l-.045.161c-.01.119.017.266.068.37.097.198.268.413.435.544.19.148.365.572.608.631.177.042.384-.104.543-.143.18-.043.397.01.571-.053.222-.079.127-.337.288-.45.104-.074.287-.01.406-.051.2-.069.339-.263.376-.46l.039-.221c.039-.103.111-.16.09-.293l-.064-.187v-.337c-.003-.2.017-.379-.078-.55-.38-.688-1.236-.929-1.975-.789-.18.034-.287.126-.442.207-.17.088-.139.166-.318.224-.081.026-.216.124-.215.224l.012.169-.03-.025"/><path d="M.495-48.695c.018.072.007.127-.026.19l-.165.128c-.05.062-.099.276-.079.362-.169.058-.01.227-.015.35l-.045.161c-.01.119.017.266.068.37.097.198.268.413.435.544.19.148.365.572.608.631.177.042.384-.104.543-.143.18-.043.397.01.571-.053.222-.079.127-.337.288-.45.104-.074.287-.01.406-.051.2-.069.339-.263.376-.46l.039-.221c.039-.103.111-.16.09-.293l-.064-.187v-.337c-.003-.2.017-.379-.078-.55-.38-.688-1.236-.929-1.975-.789-.18.034-.287.126-.442.207-.17.088-.139.166-.318.224-.081.026-.216.124-.215.224l.012.169-.03-.025"/><path d="M69.439-41.042c.018.072.007.127-.026.19l-.165.128c-.05.062-.099.276-.079.362-.169.058-.01.227-.015.35l-.045.161c-.01.119.017.266.068.37.097.198.268.413.435.544.19.148.365.572.608.631.177.042.384-.104.543-.143.18-.043.397.01.571-.053.222-.079.127-.337.288-.45.104-.074.287-.01.406-.051.2-.069.339-.263.376-.46l.039-.221c.039-.103.111-.16.09-.293l-.064-.187v-.337c-.003-.2.017-.379-.078-.55-.38-.688-1.236-.929-1.975-.789-.18.034-.287.126-.442.207-.17.088-.139.166-.318.224-.081.026-.216.124-.215.224l.012.169-.03-.025"/><path d="M61.778-41.042c.018.072.007.127-.026.19l-.165.128c-.05.062-.099.276-.079.362-.169.058-.009.227-.015.35l-.045.161c-.01.119.017.266.068.37.097.198.268.413.435.544.19.148.365.572.608.631.177.042.384-.104.543-.143.18-.043.397.01.571-.053.222-.079.127-.337.288-.45.104-.074.287-.01.406-.051.2-.069.339-.263.376-.46l.039-.221c.039-.103.111-.16.09-.293l-.064-.187v-.337c-.003-.2.017-.379-.078-.55-.38-.688-1.236-.929-1.975-.789-.18.034-.287.126-.442.207-.17.088-.139.166-.318.224-.081.026-.216.124-.215.224l.012.169-.03-.025"/><path d="M54.118-41.042c.018.072.007.127-.026.19l-.165.128c-.05.062-.099.276-.079.362-.169.058-.009.227-.015.35l-.045.161c-.01.119.017.266.068.37.097.198.268.413.435.544.19.148.365.572.608.631.177.042.384-.104.543-.143.18-.043.397.01.571-.053.222-.079.127-.337.288-.45.104-.074.287-.01.406-.051.2-.069.339-.263.376-.46l.039-.221c.039-.103.111-.16.09-.293l-.064-.187v-.337c-.003-.2.017-.379-.078-.55-.38-.688-1.236-.929-1.975-.789-.18.034-.287.126-.442.207-.17.088-.139.166-.318.224-.081.026-.216.124-.215.224l.012.169-.03-.025"/><path d="M46.458-41.042c.018.072.007.127-.026.19l-.165.128c-.05.062-.099.276-.079.362-.169.058-.009.227-.015.35l-.045.161c-.01.119.017.266.068.37.097.198.268.413.435.544.19.148.365.572.608.631.177.042.384-.104.543-.143.18-.043.397.01.571-.053.222-.079.127-.337.288-.45.104-.074.287-.01.406-.051.2-.069.339-.263.376-.46l.039-.221c.039-.103.111-.16.09-.293l-.064-.187v-.337c-.003-.2.017-.379-.078-.55-.38-.688-1.236-.929-1.975-.789-.18.034-.287.126-.442.207-.17.088-.139.166-.318.224-.081.026-.216.124-.215.224l.012.169-.03-.025"/><path d="M38.797-41.042c.018.072.007.127-.026.19l-.165.128c-.05.062-.099.276-.079.362-.169.058-.009.227-.015.35l-.045.161c-.01.119.017.266.068.37.097.198.268.413.435.544.19.148.365.572.608.631.177.042.384-.104.543-.143.18-.043.397.01.571-.053.222-.079.127-.337.288-.45.104-.074.287-.01.406-.051.2-.069.339-.263.376-.46l.039-.221c.039-.103.111-.16.09-.293l-.064-.187v-.337c-.003-.2.017-.379-.078-.55-.38-.688-1.236-.929-1.975-.789-.18.034-.287.126-.442.207-.17.088-.139.166-.318.224-.081.026-.216.124-.215.224l.012.169-.03-.025"/><path d="M31.137-41.042c.018.072.007.127-.026.19l-.165.128c-.05.062-.099.276-.079.362-.169.058-.009.227-.015.35l-.045.161c-.01.119.017.266.068.37.097.198.268.413.435.544.19.148.365.572.608.631.177.042.384-.104.543-.143.18-.043.397.01.571-.053.222-.079.127-.337.288-.45.104-.074.287-.01.406-.051.2-.069.339-.263.376-.46l.039-.221c.039-.103.111-.16.09-.293l-.064-.187v-.337c-.003-.2.017-.379-.078-.55-.38-.688-1.236-.929-1.975-.789-.18.034-.287.126-.442.207-.17.088-.139.166-.318.224-.081.026-.216.124-.215.224l.012.169-.03-.025"/><path d="M23.477-41.042c.018.072.007.127-.026.19l-.165.128c-.05.062-.099.276-.079.362-.169.058-.009.227-.015.35l-.045.161c-.01.119.017.266.068.37.097.198.268.413.435.544.19.148.365.572.608.631.177.042.384-.104.543-.143.18-.043.397.01.571-.053.222-.079.127-.337.288-.45.104-.074.287-.01.406-.051.2-.069.339-.263.376-.46l.039-.221c.039-.103.111-.16.09-.293l-.064-.187v-.337c-.003-.2.017-.379-.078-.55-.38-.688-1.236-.929-1.975-.789-.18.034-.287.126-.442.207-.17.088-.139.166-.318.224-.081.026-.216.124-.215.224l.012.169-.03-.025"/><path d="M15.816-41.042c.018.072.007.127-.026.19l-.165.128c-.05.062-.099.276-.079.362-.169.058-.009.227-.015.35l-.045.161c-.01.119.017.266.068.37.097.198.268.413.435.544.19.148.365.572.608.631.177.042.384-.104.543-.143.18-.043.397.01.571-.053.222-.079.127-.337.288-.45.104-.074.287-.01.406-.051.2-.069.339-.263.376-.46l.039-.221c.039-.103.111-.16.09-.293l-.064-.187v-.337c-.003-.2.017-.379-.078-.55-.38-.688-1.236-.929-1.975-.789-.18.034-.287.126-.442.207-.17.088-.139.166-.318.224-.081.026-.216.124-.215.224l.012.169-.03-.025"/><path d="M8.156-41.042c.018.072.007.127-.026.19l-.165.128c-.05.062-.099.276-.079.362-.169.058-.009.227-.015.35l-.045.161c-.01.119.017.266.068.37.097.198.268.413.435.544.19.148.365.572.608.631.177.042.384-.104.543-.143.18-.043.397.01.571-.053.222-.079.127-.337.288-.45.104-.074.287-.01.406-.051.2-.069.339-.263.376-.46l.039-.221c.039-.103.111-.16.09-.293l-.064-.187v-.337c-.003-.2.017-.379-.078-.55-.38-.688-1.236-.929-1.975-.789-.18.034-.287.126-.442.207-.17.088-.139.166-.318.224-.081.026-.216.124-.215.224l.012.169-.03-.024"/><path d="M.495-41.042c.018.072.007.127-.026.19l-.165.128c-.05.062-.099.276-.079.362-.169.058-.01.227-.015.35l-.045.161c-.01.119.017.266.068.37.097.198.268.413.435.544.19.148.365.572.608.631.177.042.384-.104.543-.143.18-.043.397.01.571-.053.222-.079.127-.337.288-.45.104-.074.287-.01.406-.051.2-.069.339-.263.376-.46l.039-.221c.039-.103.111-.16.09-.293l-.064-.187v-.337c-.003-.2.017-.379-.078-.55-.38-.688-1.236-.929-1.975-.789-.18.034-.287.126-.442.207-.17.088-.139.166-.318.224-.081.026-.216.124-.215.224l.012.169-.03-.025"/><path d="M69.439-33.39c.018.072.007.127-.026.19l-.165.128c-.05.062-.099.276-.079.362-.169.058-.01.227-.015.35l-.045.161c-.01.119.017.266.068.37.097.198.268.413.435.544.19.148.365.572.608.631.177.042.384-.104.543-.143.18-.043.397.01.571-.053.222-.079.127-.337.288-.45.104-.074.287-.01.406-.051.2-.069.339-.263.376-.46l.039-.221c.039-.103.111-.16.09-.293l-.064-.187v-.337c-.003-.2.017-.379-.078-.55-.38-.688-1.236-.929-1.975-.789-.18.034-.287.126-.442.207-.17.088-.139.166-.318.224-.081.026-.216.124-.215.224l.012.169-.03-.025"/><path d="M61.778-33.39c.018.072.007.127-.026.19l-.165.128c-.05.062-.099.276-.079.362-.169.058-.009.227-.015.35l-.045.161c-.01.119.017.266.068.37.097.198.268.413.435.544.19.148.365.572.608.631.177.042.384-.104.543-.143.18-.043.397.01.571-.053.222-.079.127-.337.288-.45.104-.074.287-.01.406-.051.2-.069.339-.263.376-.46l.039-.221c.039-.103.111-.16.09-.293l-.064-.187v-.337c-.003-.2.017-.379-.078-.55-.38-.688-1.236-.929-1.975-.789-.18.034-.287.126-.442.207-.17.088-.139.166-.318.224-.081.026-.216.124-.215.224l.012.169-.03-.025"/><path d="M54.118-33.39c.018.072.007.127-.026.19l-.165.128c-.05.062-.099.276-.079.362-.169.058-.009.227-.015.35l-.045.161c-.01.119.017.266.068.37.097.198.268.413.435.544.19.148.365.572.608.631.177.042.384-.104.543-.143.18-.043.397.01.571-.053.222-.079.127-.337.288-.45.104-.074.287-.01.406-.051.2-.069.339-.263.376-.46l.039-.221c.039-.103.111-.16.09-.293l-.064-.187v-.337c-.003-.2.017-.379-.078-.55-.38-.688-1.236-.929-1.975-.789-.18.034-.287.126-.442.207-.17.088-.139.166-.318.224-.081.026-.216.124-.215.224l.012.169-.03-.025"/><path d="M46.458-33.39c.018.072.007.127-.026.19l-.165.128c-.05.062-.099.276-.079.362-.169.058-.009.227-.015.35l-.045.161c-.01.119.017.266.068.37.097.198.268.413.435.544.19.148.365.572.608.631.177.042.384-.104.543-.143.18-.043.397.01.571-.053.222-.079.127-.337.288-.45.104-.074.287-.01.406-.051.2-.069.339-.263.376-.46l.039-.221c.039-.103.111-.16.09-.293l-.064-.187v-.337c-.003-.2.017-.379-.078-.55-.38-.688-1.236-.929-1.975-.789-.18.034-.287.126-.442.207-.17.088-.139.166-.318.224-.081.026-.216.124-.215.224l.012.169-.03-.025"/><path d="M38.797-33.39c.018.072.007.127-.026.19l-.165.128c-.05.062-.099.276-.079.362-.169.058-.009.227-.015.35l-.045.161c-.01.119.017.266.068.37.097.198.268.413.435.544.19.148.365.572.608.631.177.042.384-.104.543-.143.18-.043.397.01.571-.053.222-.079.127-.337.288-.45.104-.074.287-.01.406-.051.2-.069.339-.263.376-.46l.039-.221c.039-.103.111-.16.09-.293l-.064-.187v-.337c-.003-.2.017-.379-.078-.55-.38-.688-1.236-.929-1.975-.789-.18.034-.287.126-.442.207-.17.088-.139.166-.318.224-.081.026-.216.124-.215.224l.012.169-.03-.025"/><path d="M31.137-33.39c.018.072.007.127-.026.19l-.165.128c-.05.062-.099.276-.079.362-.169.058-.009.227-.015.35l-.045.161c-.01.119.017.266.068.37.097.198.268.413.435.544.19.148.365.572.608.631.177.042.384-.104.543-.143.18-.043.397.01.571-.053.222-.079.127-.337.288-.45.104-.074.287-.01.406-.051.2-.069.339-.263.376-.46l.039-.221c.039-.103.111-.16.09-.293l-.064-.187v-.337c-.003-.2.017-.379-.078-.55-.38-.688-1.236-.929-1.975-.789-.18.034-.287.126-.442.207-.17.088-.139.166-.318.224-.081.026-.216.124-.215.224l.012.169-.03-.025"/><path d="M23.477-33.39c.018.072.007.127-.026.19l-.165.128c-.05.062-.099.276-.079.362-.169.058-.009.227-.015.35l-.045.161c-.01.119.017.266.068.37.097.198.268.413.435.544.19.148.365.572.608.631.177.042.384-.104.543-.143.18-.043.397.01.571-.053.222-.079.127-.337.288-.45.104-.074.287-.01.406-.051.2-.069.339-.263.376-.46l.039-.221c.039-.103.111-.16.09-.293l-.064-.187v-.337c-.003-.2.017-.379-.078-.55-.38-.688-1.236-.929-1.975-.789-.18.034-.287.126-.442.207-.17.088-.139.166-.318.224-.081.026-.216.124-.215.224l.012.169-.03-.025"/><path d="M15.816-33.39c.018.072.007.127-.026.19l-.165.128c-.05.062-.099.276-.079.362-.169.058-.009.227-.015.35l-.045.161c-.01.119.017.266.068.37.097.198.268.413.435.544.19.148.365.572.608.631.177.042.384-.104.543-.143.18-.043.397.01.571-.053.222-.079.127-.337.288-.45.104-.074.287-.01.406-.051.2-.069.339-.263.376-.46l.039-.221c.039-.103.111-.16.09-.293l-.064-.187v-.337c-.003-.2.017-.379-.078-.55-.38-.688-1.236-.929-1.975-.789-.18.034-.287.126-.442.207-.17.088-.139.166-.318.224-.081.026-.216.124-.215.224l.012.169-.03-.025"/><path d="M8.156-33.39c.018.072.007.127-.026.19l-.165.128c-.05.062-.099.276-.079.362-.169.058-.009.227-.015.35l-.045.161c-.01.119.017.266.068.37.097.198.268.413.435.544.19.148.365.572.608.631.177.042.384-.104.543-.143.18-.043.397.01.571-.053.222-.079.127-.337.288-.45.104-.074.287-.01.406-.051.2-.069.339-.263.376-.46l.039-.221c.039-.103.111-.16.09-.293l-.064-.187v-.337c-.003-.2.017-.379-.078-.55-.38-.688-1.236-.929-1.975-.789-.18.034-.287.126-.442.207-.17.088-.139.166-.318.224-.081.026-.216.124-.215.224l.012.169-.03-.025"/><path d="M.495-33.39c.018.072.007.127-.026.19l-.165.128c-.05.062-.099.276-.079.362-.169.058-.01.227-.015.35l-.045.161c-.01.119.017.266.068.37.097.198.268.413.435.544.19.148.365.572.608.631.177.042.384-.104.543-.143.18-.043.397.01.571-.053.222-.079.127-.337.288-.45.104-.074.287-.01.406-.051.2-.069.339-.263.376-.46l.039-.221c.039-.103.111-.16.09-.293l-.064-.187v-.337c-.003-.2.017-.379-.078-.55-.38-.688-1.236-.929-1.975-.789-.18.034-.287.126-.442.207-.17.088-.139.166-.318.224-.081.026-.216.124-.215.224l.013.171-.03-.025"/><path d="M69.439-25.736c.018.072.007.127-.026.19l-.165.128c-.05.062-.099.276-.079.362-.169.058-.01.227-.015.35l-.045.161c-.01.119.017.266.068.37.097.198.268.413.435.544.19.148.365.572.608.631.177.042.384-.104.543-.143.18-.043.397.01.571-.053.222-.079.127-.337.288-.45.104-.074.287-.01.406-.051.2-.069.339-.263.376-.46l.039-.221c.039-.103.111-.16.09-.293l-.064-.187v-.337c-.003-.2.017-.379-.078-.55-.38-.688-1.236-.929-1.975-.789-.18.034-.287.126-.442.207-.17.088-.139.166-.318.224-.081.026-.216.124-.215.224l.012.169-.03-.025"/><path d="M61.778-25.736c.018.072.007.127-.026.19l-.165.128c-.05.062-.099.276-.079.362-.169.058-.009.227-.015.35l-.045.161c-.01.119.017.266.068.37.097.198.268.413.435.544.19.148.365.572.608.631.177.042.384-.104.543-.143.18-.043.397.01.571-.053.222-.079.127-.337.288-.45.104-.074.287-.01.406-.051.2-.069.339-.263.376-.46l.039-.221c.039-.103.111-.16.09-.293l-.064-.187v-.337c-.003-.2.017-.379-.078-.55-.38-.688-1.236-.929-1.975-.789-.18.034-.287.126-.442.207-.17.088-.139.166-.318.224-.081.026-.216.124-.215.224l.012.169-.03-.025"/><path d="M54.118-25.736c.018.072.007.127-.026.19l-.165.128c-.05.062-.099.276-.079.362-.169.058-.009.227-.015.35l-.045.161c-.01.119.017.266.068.37.097.198.268.413.435.544.19.148.365.572.608.631.177.042.384-.104.543-.143.18-.043.397.01.571-.053.222-.079.127-.337.288-.45.104-.074.287-.01.406-.051.2-.069.339-.263.376-.46l.039-.221c.039-.103.111-.16.09-.293l-.064-.187v-.337c-.003-.2.017-.379-.078-.55-.38-.688-1.236-.929-1.975-.789-.18.034-.287.126-.442.207-.17.088-.139.166-.318.224-.081.026-.216.124-.215.224l.012.169-.03-.025"/><path d="M46.458-25.736c.018.072.007.127-.026.19l-.165.128c-.05.062-.099.276-.079.362-.169.058-.009.227-.015.35l-.045.161c-.01.119.017.266.068.37.097.198.268.413.435.544.19.148.365.572.608.631.177.042.384-.104.543-.143.18-.043.397.01.571-.053.222-.079.127-.337.288-.45.104-.074.287-.01.406-.051.2-.069.339-.263.376-.46l.039-.221c.039-.103.111-.16.09-.293l-.064-.187v-.337c-.003-.2.017-.379-.078-.55-.38-.688-1.236-.929-1.975-.789-.18.034-.287.126-.442.207-.17.088-.139.166-.318.224-.081.026-.216.124-.215.224l.012.169-.03-.025"/><path d="M38.797-25.736c.018.072.007.127-.026.19l-.165.128c-.05.062-.099.276-.079.362-.169.058-.009.227-.015.35l-.045.161c-.01.119.017.266.068.37.097.198.268.413.435.544.19.148.365.572.608.631.177.042.384-.104.543-.143.18-.043.397.01.571-.053.222-.079.127-.337.288-.45.104-.074.287-.01.406-.051.2-.069.339-.263.376-.46l.039-.221c.039-.103.111-.16.09-.293l-.064-.187v-.337c-.003-.2.017-.379-.078-.55-.38-.688-1.236-.929-1.975-.789-.18.034-.287.126-.442.207-.17.088-.139.166-.318.224-.081.026-.216.124-.215.224l.012.169-.03-.025"/><path d="M31.137-25.736c.018.072.007.127-.026.19l-.165.128c-.05.062-.099.276-.079.362-.169.058-.009.227-.015.35l-.045.161c-.01.119.017.266.068.37.097.198.268.413.435.544.19.148.365.572.608.631.177.042.384-.104.543-.143.18-.043.397.01.571-.053.222-.079.127-.337.288-.45.104-.074.287-.01.406-.051.2-.069.339-.263.376-.46l.039-.221c.039-.103.111-.16.09-.293l-.064-.187v-.337c-.003-.2.017-.379-.078-.55-.38-.688-1.236-.929-1.975-.789-.18.034-.287.126-.442.207-.17.088-.139.166-.318.224-.081.026-.216.124-.215.224l.012.169-.03-.025"/><path d="M23.477-25.736c.018.072.007.127-.026.19l-.165.128c-.05.062-.099.276-.079.362-.169.058-.009.227-.015.35l-.045.161c-.01.119.017.266.068.37.097.198.268.413.435.544.19.148.365.572.608.631.177.042.384-.104.543-.143.18-.043.397.01.571-.053.222-.079.127-.337.288-.45.104-.074.287-.01.406-.051.2-.069.339-.263.376-.46l.039-.221c.039-.103.111-.16.09-.293l-.064-.187v-.337c-.003-.2.017-.379-.078-.55-.38-.688-1.236-.929-1.975-.789-.18.034-.287.126-.442.207-.17.088-.139.166-.318.224-.081.026-.216.124-.215.224l.012.169-.03-.025"/><path d="M15.816-25.736c.018.072.007.127-.026.19l-.165.128c-.05.062-.099.276-.079.362-.169.058-.009.227-.015.35l-.045.161c-.01.119.017.266.068.37.097.198.268.413.435.544.19.148.365.572.608.631.177.042.384-.104.543-.143.18-.043.397.01.571-.053.222-.079.127-.337.288-.45.104-.074.287-.01.406-.051.2-.069.339-.263.376-.46l.039-.221c.039-.103.111-.16.09-.293l-.064-.187v-.337c-.003-.2.017-.379-.078-.55-.38-.688-1.236-.929-1.975-.789-.18.034-.287.126-.442.207-.17.088-.139.166-.318.224-.081.026-.216.124-.215.224l.012.169-.03-.025"/><path d="M8.156-25.736c.018.072.007.127-.026.19l-.165.128c-.05.062-.099.276-.079.362-.169.058-.009.227-.015.35l-.045.161c-.01.119.017.266.068.37.097.198.268.413.435.544.19.148.365.572.608.631.177.042.384-.104.543-.143.18-.043.397.01.571-.053.222-.079.127-.337.288-.45.104-.074.287-.01.406-.051.2-.069.339-.263.376-.46l.039-.221c.039-.103.111-.16.09-.293l-.064-.187v-.337c-.003-.2.017-.379-.078-.55-.38-.688-1.236-.929-1.975-.789-.18.034-.287.126-.442.207-.17.088-.139.166-.318.224-.081.026-.216.124-.215.224l.012.169-.03-.025"/><path d="M.495-25.736c.018.072.007.127-.026.19l-.165.128c-.05.062-.099.276-.079.362-.169.058-.01.227-.015.35l-.045.161c-.01.119.017.266.068.37.097.198.268.413.435.544.19.148.365.572.608.631.177.042.384-.104.543-.143.18-.043.397.01.571-.053.222-.079.127-.337.288-.45.104-.074.287-.01.406-.051.2-.069.339-.263.376-.46l.039-.221c.039-.103.111-.16.09-.293l-.064-.187v-.337c-.003-.2.017-.379-.078-.55-.38-.688-1.236-.929-1.975-.789-.18.034-.287.126-.442.207-.17.088-.139.166-.318.224-.081.026-.216.124-.215.224l.012.169-.03-.025"/><path d="M69.439-18.084c.018.072.007.127-.026.19l-.165.128c-.05.062-.099.276-.079.362-.169.058-.01.227-.015.35l-.045.161c-.01.119.017.266.068.37.097.198.268.413.435.544.19.148.365.572.608.631.177.042.384-.104.543-.143.18-.043.397.01.571-.053.222-.079.127-.337.288-.45.104-.074.287-.01.406-.051.2-.069.339-.263.376-.46l.039-.221c.039-.103.111-.16.09-.293l-.064-.187v-.337c-.003-.2.017-.379-.078-.55-.38-.688-1.236-.929-1.975-.789-.18.034-.287.126-.442.207-.17.088-.139.166-.318.224-.081.026-.216.124-.215.224l.012.169-.03-.025"/><path d="M61.778-18.084c.018.072.007.127-.026.19l-.165.128c-.05.062-.099.276-.079.362-.169.058-.009.227-.015.35l-.045.161c-.01.119.017.266.068.37.097.198.268.413.435.544.19.148.365.572.608.631.177.042.384-.104.543-.143.18-.043.397.01.571-.053.222-.079.127-.337.288-.45.104-.074.287-.01.406-.051.2-.069.339-.263.376-.46l.039-.221c.039-.103.111-.16.09-.293l-.064-.187v-.337c-.003-.2.017-.379-.078-.55-.38-.688-1.236-.929-1.975-.789-.18.034-.287.126-.442.207-.17.088-.139.166-.318.224-.081.026-.216.124-.215.224l.012.169-.03-.025"/><path d="M54.118-18.084c.018.072.007.127-.026.19l-.165.128c-.05.062-.099.276-.079.362-.169.058-.009.227-.015.35l-.045.161c-.01.119.017.266.068.37.097.198.268.413.435.544.19.148.365.572.608.631.177.042.384-.104.543-.143.18-.043.397.01.571-.053.222-.079.127-.337.288-.45.104-.074.287-.01.406-.051.2-.069.339-.263.376-.46l.039-.221c.039-.103.111-.16.09-.293l-.064-.187v-.337c-.003-.2.017-.379-.078-.55-.38-.688-1.236-.929-1.975-.789-.18.034-.287.126-.442.207-.17.088-.139.166-.318.224-.081.026-.216.124-.215.224l.012.169-.03-.025"/><path d="M46.458-18.084c.018.072.007.127-.026.19l-.165.128c-.05.062-.099.276-.079.362-.169.058-.009.227-.015.35l-.045.161c-.01.119.017.266.068.37.097.198.268.413.435.544.19.148.365.572.608.631.177.042.384-.104.543-.143.18-.043.397.01.571-.053.222-.079.127-.337.288-.45.104-.074.287-.01.406-.051.2-.069.339-.263.376-.46l.039-.221c.039-.103.111-.16.09-.293l-.064-.187v-.337c-.003-.2.017-.379-.078-.55-.38-.688-1.236-.929-1.975-.789-.18.034-.287.126-.442.207-.17.088-.139.166-.318.224-.081.026-.216.124-.215.224l.012.169-.03-.025"/><path d="M38.797-18.084c.018.072.007.127-.026.19l-.165.128c-.05.062-.099.276-.079.362-.169.058-.009.227-.015.35l-.045.161c-.01.119.017.266.068.37.097.198.268.413.435.544.19.148.365.572.608.631.177.042.384-.104.543-.143.18-.043.397.01.571-.053.222-.079.127-.337.288-.45.104-.074.287-.01.406-.051.2-.069.339-.263.376-.46l.039-.221c.039-.103.111-.16.09-.293l-.064-.187v-.337c-.003-.2.017-.379-.078-.55-.38-.688-1.236-.929-1.975-.789-.18.034-.287.126-.442.207-.17.088-.139.166-.318.224-.081.026-.216.124-.215.224l.012.169-.03-.025"/><path d="M31.137-18.084c.018.072.007.127-.026.19l-.165.128c-.05.062-.099.276-.079.362-.169.058-.009.227-.015.35l-.045.161c-.01.119.017.266.068.37.097.198.268.413.435.544.19.148.365.572.608.631.177.042.384-.104.543-.143.18-.043.397.01.571-.053.222-.079.127-.337.288-.45.104-.074.287-.01.406-.051.2-.069.339-.263.376-.46l.039-.221c.039-.103.111-.16.09-.293l-.064-.187v-.337c-.003-.2.017-.379-.078-.55-.38-.688-1.236-.929-1.975-.789-.18.034-.287.126-.442.207-.17.088-.139.166-.318.224-.081.026-.216.124-.215.224l.012.169-.03-.025"/><path d="M23.477-18.084c.018.072.007.127-.026.19l-.165.128c-.05.062-.099.276-.079.362-.169.058-.009.227-.015.35l-.045.161c-.01.119.017.266.068.37.097.198.268.413.435.544.19.148.365.572.608.631.177.042.384-.104.543-.143.18-.043.397.01.571-.053.222-.079.127-.337.288-.45.104-.074.287-.01.406-.051.2-.069.339-.263.376-.46l.039-.221c.039-.103.111-.16.09-.293l-.064-.187v-.337c-.003-.2.017-.379-.078-.55-.38-.688-1.236-.929-1.975-.789-.18.034-.287.126-.442.207-.17.088-.139.166-.318.224-.081.026-.216.124-.215.224l.012.169-.03-.025"/><path d="M15.816-18.084c.018.072.007.127-.026.19l-.165.128c-.05.062-.099.276-.079.362-.169.058-.009.227-.015.35l-.045.161c-.01.119.017.266.068.37.097.198.268.413.435.544.19.148.365.572.608.631.177.042.384-.104.543-.143.18-.043.397.01.571-.053.222-.079.127-.337.288-.45.104-.074.287-.01.406-.051.2-.069.339-.263.376-.46l.039-.221c.039-.103.111-.16.09-.293l-.064-.187v-.337c-.003-.2.017-.379-.078-.55-.38-.688-1.236-.929-1.975-.789-.18.034-.287.126-.442.207-.17.088-.139.166-.318.224-.081.026-.216.124-.215.224l.012.169-.03-.025"/><path d="M8.156-18.084c.018.072.007.127-.026.19l-.165.128c-.05.062-.099.276-.079.362-.169.058-.009.227-.015.35l-.045.161c-.01.119.017.266.068.37.097.198.268.413.435.544.19.148.365.572.608.631.177.042.384-.104.543-.143.18-.043.397.01.571-.053.222-.079.127-.337.288-.45.104-.074.287-.01.406-.051.2-.069.339-.263.376-.46l.039-.221c.039-.103.111-.16.09-.293l-.064-.187v-.337c-.003-.2.017-.379-.078-.55-.38-.688-1.236-.929-1.975-.789-.18.034-.287.126-.442.207-.17.088-.139.166-.318.224-.081.026-.216.124-.215.224l.012.169-.03-.025"/><path d="M.495-18.084c.018.072.007.127-.026.19l-.165.128c-.05.062-.099.276-.079.362-.169.058-.01.227-.015.35l-.045.161c-.01.119.017.266.068.37.097.198.268.413.435.544.19.148.365.572.608.631.177.042.384-.104.543-.143.18-.043.397.01.571-.053.222-.079.127-.337.288-.45.104-.074.287-.01.406-.051.2-.069.339-.263.376-.46l.039-.221c.039-.103.111-.16.09-.293l-.064-.187v-.337c-.003-.2.017-.379-.078-.55-.38-.688-1.236-.929-1.975-.789-.18.034-.287.126-.442.207-.17.088-.139.166-.318.224-.081.026-.216.124-.215.224l.013.17-.03-.025"/><path d="M69.439-10.431c.018.072.007.127-.026.19l-.165.128c-.05.062-.099.276-.079.362-.169.059-.01.228-.015.351l-.045.161c-.01.119.017.266.068.37.097.198.268.413.435.544.19.148.365.572.608.631.177.042.384-.104.543-.143.18-.043.397.01.571-.053.222-.079.127-.337.288-.45.104-.074.287-.01.406-.051.2-.069.339-.263.376-.46l.039-.221c.039-.103.111-.16.09-.293l-.064-.187v-.337c-.003-.2.017-.379-.078-.55-.38-.688-1.236-.929-1.975-.789-.18.034-.287.126-.442.207-.17.088-.139.166-.318.224-.081.026-.216.124-.215.224l.012.169-.03-.025"/><path d="M61.778-10.431c.018.072.007.127-.026.19l-.165.128c-.05.062-.099.276-.079.362-.169.058-.009.227-.015.35l-.045.161c-.01.119.017.266.068.37.097.198.268.413.435.544.19.148.365.572.608.631.177.042.384-.104.543-.143.18-.043.397.01.571-.053.222-.079.127-.337.288-.45.104-.074.287-.01.406-.051.2-.069.339-.263.376-.46l.039-.221c.039-.103.111-.16.09-.293l-.064-.187v-.337c-.003-.2.017-.379-.078-.55-.38-.688-1.236-.929-1.975-.789-.18.034-.287.126-.442.207-.17.088-.139.166-.318.224-.081.026-.216.124-.215.224l.012.169-.03-.025"/><path d="M54.118-10.431c.018.072.007.127-.026.19l-.165.128c-.05.062-.099.276-.079.362-.169.058-.009.227-.015.35l-.045.161c-.01.119.017.266.068.37.097.198.268.413.435.544.19.148.365.572.608.631.177.042.384-.104.543-.143.18-.043.397.01.571-.053.222-.079.127-.337.288-.45.104-.074.287-.01.406-.051.2-.069.339-.263.376-.46l.039-.221c.039-.103.111-.16.09-.293l-.064-.187v-.337c-.003-.2.017-.379-.078-.55-.38-.688-1.236-.929-1.975-.789-.18.034-.287.126-.442.207-.17.088-.139.166-.318.224-.081.026-.216.124-.215.224l.012.169-.03-.025"/><path d="M46.458-10.431c.018.072.007.127-.026.19l-.165.128c-.05.062-.099.276-.079.362-.169.058-.009.227-.015.35l-.045.161c-.01.119.017.266.068.37.097.198.268.413.435.544.19.148.365.572.608.631.177.042.384-.104.543-.143.18-.043.397.01.571-.053.222-.079.127-.337.288-.45.104-.074.287-.01.406-.051.2-.069.339-.263.376-.46l.039-.221c.039-.103.111-.16.09-.293l-.064-.187v-.337c-.003-.2.017-.379-.078-.55-.38-.688-1.236-.929-1.975-.789-.18.034-.287.126-.442.207-.17.088-.139.166-.318.224-.081.026-.216.124-.215.224l.012.169-.03-.025"/><path d="M38.797-10.431c.018.072.007.127-.026.19l-.165.128c-.05.062-.099.276-.079.362-.169.058-.009.227-.015.35l-.045.161c-.01.119.017.266.068.37.097.198.268.413.435.544.19.148.365.572.608.631.177.042.384-.104.543-.143.18-.043.397.01.571-.053.222-.079.127-.337.288-.45.104-.074.287-.01.406-.051.2-.069.339-.263.376-.46l.039-.221c.039-.103.111-.16.09-.293l-.064-.187v-.337c-.003-.2.017-.379-.078-.55-.38-.688-1.236-.929-1.975-.789-.18.034-.287.126-.442.207-.17.088-.139.166-.318.224-.081.026-.216.124-.215.224l.012.169-.03-.025"/><path d="M31.137-10.431c.018.072.007.127-.026.19l-.165.128c-.05.062-.099.276-.079.362-.169.058-.009.227-.015.35l-.045.161c-.01.119.017.266.068.37.097.198.268.413.435.544.19.148.365.572.608.631.177.042.384-.104.543-.143.18-.043.397.01.571-.053.222-.079.127-.337.288-.45.104-.074.287-.01.406-.051.2-.069.339-.263.376-.46l.039-.221c.039-.103.111-.16.09-.293l-.064-.187v-.337c-.003-.2.017-.379-.078-.55-.38-.688-1.236-.929-1.975-.789-.18.034-.287.126-.442.207-.17.088-.139.166-.318.224-.081.026-.216.124-.215.224l.012.169-.03-.025"/><path d="M23.477-10.431c.018.072.007.127-.026.19l-.165.128c-.05.062-.099.276-.079.362-.169.058-.009.227-.015.35l-.045.161c-.01.119.017.266.068.37.097.198.268.413.435.544.19.148.365.572.608.631.177.042.384-.104.543-.143.18-.043.397.01.571-.053.222-.079.127-.337.288-.45.104-.074.287-.01.406-.051.2-.069.339-.263.376-.46l.039-.221c.039-.103.111-.16.09-.293l-.064-.187v-.337c-.003-.2.017-.379-.078-.55-.38-.688-1.236-.929-1.975-.789-.18.034-.287.126-.442.207-.17.088-.139.166-.318.224-.081.026-.216.124-.215.224l.012.169-.03-.025"/><path d="M15.816-10.431c.018.072.007.127-.026.19l-.165.128c-.05.062-.099.276-.079.362-.169.058-.009.227-.015.35l-.045.161c-.01.119.017.266.068.37.097.198.268.413.435.544.19.148.365.572.608.631.177.042.384-.104.543-.143.18-.043.397.01.571-.053.222-.078.128-.336.289-.449.104-.074.287-.01.406-.051.2-.069.339-.263.376-.46l.039-.221c.039-.103.111-.16.09-.293l-.064-.187v-.337c-.003-.2.017-.379-.078-.55-.38-.688-1.236-.929-1.975-.789-.18.034-.287.126-.442.207-.17.088-.139.166-.318.224-.081.026-.216.124-.215.224l.012.169-.03-.025"/><path d="M8.156-10.431c.018.072.007.127-.026.19l-.165.128c-.05.063-.099.277-.079.363-.169.058-.01.227-.015.35l-.045.161c-.01.119.017.266.068.37.097.198.268.413.435.544.19.148.365.572.608.631.177.042.384-.105.543-.143.18-.043.397.01.571-.053.222-.079.127-.337.288-.45.104-.074.287-.01.406-.051.2-.069.339-.263.376-.46l.039-.221c.039-.103.111-.16.09-.293l-.064-.187v-.337c-.003-.2.017-.379-.078-.55-.38-.688-1.236-.929-1.975-.789-.18.034-.287.126-.442.207-.17.088-.139.166-.318.224-.081.026-.216.124-.215.224l.012.169-.03-.025"/><path d="M.495-10.431c.018.072.007.127-.026.19l-.165.128c-.05.063-.099.277-.079.363-.169.058-.01.227-.015.35l-.045.161c-.01.119.017.266.068.37.097.198.268.413.435.544.19.148.365.572.608.631.178.042.384-.105.543-.143.181-.043.398.01.572-.053.222-.079.127-.337.288-.45.104-.074.287-.01.406-.051.2-.069.339-.263.376-.46l.039-.22c.039-.103.111-.16.09-.293l-.064-.187v-.337c-.003-.2.017-.379-.078-.55-.38-.688-1.236-.929-1.975-.789-.18.034-.287.126-.442.207-.17.088-.139.166-.318.224-.081.026-.216.124-.215.224l.012.169-.03-.025"/></g><g fill="#fff"><path d="M69.439-2.778c.018.072.008.127-.026.19l-.165.128c-.051.062-.099.276-.079.362-.169.058-.01.227-.015.35l-.045.161c-.01.119.017.266.068.37.097.198.268.413.435.544.19.148.365.572.608.631.177.042.384-.104.543-.143.18-.043.397.01.571-.053.222-.079.127-.337.288-.45.104-.074.287-.01.406-.051.2-.07.339-.263.376-.46l.039-.221c.038-.103.111-.16.09-.293l-.064-.187v-.337c-.003-.2.017-.379-.078-.55-.38-.688-1.236-.929-1.975-.789-.18.034-.287.126-.442.207-.17.088-.139.166-.318.224-.081.026-.215.124-.215.224l.012.169-.03-.025"/><path d="M61.778-2.778c.018.072.007.127-.026.19l-.165.128c-.05.062-.099.276-.079.362-.169.058-.01.227-.015.35l-.045.161c-.01.119.017.266.068.37.097.198.268.413.435.544.19.148.365.572.608.631.178.042.384-.104.544-.143.18-.043.397.01.571-.053.222-.079.127-.337.288-.45.104-.074.287-.01.406-.051.2-.069.339-.263.376-.46l.039-.221c.039-.103.111-.16.09-.293l-.064-.187v-.337c-.003-.2.017-.379-.078-.55-.38-.688-1.236-.929-1.975-.789-.18.034-.287.126-.442.207-.17.088-.139.166-.318.224-.081.028-.216.125-.215.225l.012.169-.03-.025"/><path d="M54.118-2.778c.018.072.007.127-.026.19l-.165.128c-.05.062-.099.276-.079.362-.169.058-.01.227-.015.35l-.045.161c-.01.119.017.266.068.37.097.198.268.413.435.544.19.148.365.572.608.631.178.042.384-.104.543-.143.18-.043.397.01.571-.053.222-.079.127-.337.288-.45.104-.074.287-.01.406-.051.2-.069.339-.263.376-.46l.039-.221c.039-.103.111-.16.09-.293l-.064-.187v-.337c-.003-.2.017-.379-.078-.55-.38-.688-1.236-.929-1.975-.789-.18.034-.287.126-.442.207-.17.088-.139.166-.318.224-.08.028-.215.125-.214.225l.012.169-.03-.025"/><path d="M46.458-2.778c.018.072.007.127-.026.19l-.165.128c-.05.062-.099.276-.079.362-.169.058-.01.227-.015.35l-.045.161c-.01.119.017.266.068.37.097.198.268.413.435.544.19.148.365.572.608.631.177.042.384-.104.543-.143.18-.043.397.01.571-.053.222-.079.127-.337.288-.45.104-.074.287-.01.406-.051.2-.069.339-.263.376-.46l.039-.221c.039-.103.111-.16.09-.293l-.064-.187v-.337c-.003-.2.017-.379-.078-.55-.38-.688-1.236-.929-1.975-.789-.18.034-.287.126-.442.207-.17.088-.139.166-.318.224-.081.028-.216.125-.215.225l.012.169-.03-.025"/><path d="M38.797-2.778c.018.072.007.127-.026.19l-.165.128c-.05.062-.099.276-.079.362-.169.058-.01.227-.015.35l-.045.161c-.01.119.017.266.068.37.097.198.268.413.435.544.19.148.365.572.608.631.178.042.384-.104.544-.143.18-.043.397.01.571-.053.222-.079.127-.337.288-.45.104-.074.287-.01.406-.051.2-.069.339-.263.376-.46l.039-.221c.039-.103.111-.16.09-.293l-.064-.187v-.337c-.003-.2.017-.379-.078-.55-.38-.688-1.236-.929-1.975-.789-.18.034-.287.126-.442.207-.17.088-.139.166-.318.224-.081.028-.216.125-.215.225l.012.169-.03-.025"/><path d="M31.137-2.778c.018.072.007.127-.026.19l-.165.128c-.05.062-.099.276-.079.362-.169.058-.01.227-.015.35l-.045.161c-.01.119.017.266.068.37.097.198.268.413.435.544.19.148.365.572.608.631.177.042.384-.104.543-.143.18-.043.397.01.571-.053.222-.079.127-.337.288-.45.104-.074.287-.01.406-.051.2-.069.339-.263.376-.46l.039-.221c.039-.103.111-.16.09-.293l-.064-.187v-.337c-.003-.2.017-.379-.078-.55-.38-.688-1.236-.929-1.975-.789-.18.034-.287.126-.442.207-.17.088-.139.166-.318.224-.081.028-.215.125-.214.225l.012.169-.03-.025"/><path d="M23.477-2.778c.018.072.007.127-.026.19l-.165.128c-.05.062-.099.276-.079.362-.169.058-.01.227-.015.35l-.045.161c-.01.119.017.266.068.37.097.198.268.413.435.544.19.148.365.572.608.631.177.042.384-.104.543-.143.18-.043.397.01.571-.053.222-.079.127-.337.288-.45.104-.074.287-.01.406-.051.2-.069.339-.263.376-.46l.039-.221c.039-.103.111-.16.09-.293l-.064-.187v-.337c-.003-.2.017-.379-.078-.55-.38-.688-1.236-.929-1.975-.789-.18.034-.287.126-.442.207-.17.088-.139.166-.318.224-.081.026-.216.124-.215.224l.012.169-.03-.025"/><path d="M15.816-2.778c.018.072.007.127-.026.19l-.165.128c-.05.062-.099.276-.079.362-.169.058-.01.227-.015.35l-.045.161c-.01.119.017.266.068.37.097.198.268.413.435.544.19.148.365.572.608.631.177.042.384-.104.543-.143.18-.043.397.01.571-.053.222-.079.127-.337.288-.45.104-.074.287-.01.406-.051.2-.069.339-.263.376-.46l.039-.221c.039-.103.111-.16.09-.293l-.064-.187v-.337c-.003-.2.017-.379-.078-.55-.38-.688-1.236-.929-1.975-.789-.18.034-.287.126-.442.207-.17.088-.139.166-.318.224-.081.026-.216.124-.215.224l.012.169-.03-.024"/><path d="M8.156-2.778c.018.072.007.127-.026.19l-.165.128c-.05.062-.099.276-.079.362-.169.058-.01.227-.015.35l-.045.161c-.01.119.017.266.068.37.097.198.268.413.435.544.19.148.365.572.608.631.177.042.384-.104.543-.143.18-.043.397.01.571-.053.222-.079.127-.337.288-.45.104-.074.287-.01.406-.051.2-.069.339-.263.376-.46l.039-.221c.039-.103.111-.16.09-.293l-.064-.187v-.337c-.003-.2.017-.379-.078-.55-.38-.688-1.236-.929-1.975-.789-.179.036-.286.128-.441.209-.17.088-.139.166-.318.224-.082.026-.216.123-.215.223l.011.169-.03-.025"/><path d="M.495-2.778c.018.072.008.127-.026.19l-.165.128c-.051.063-.099.276-.079.362-.169.058-.01.227-.015.35l-.045.161c-.01.119.017.266.068.37.097.198.268.413.435.544.19.148.365.572.608.631.178.042.384-.104.543-.143.181-.043.398.01.572-.052.222-.079.127-.337.288-.45.104-.074.287-.01.406-.051.2-.07.339-.263.376-.46l.039-.221c.038-.103.111-.16.09-.293l-.064-.187v-.337c-.003-.2.017-.379-.078-.55-.38-.688-1.236-.929-1.975-.789-.18.035-.286.127-.442.208-.17.088-.139.166-.318.224-.081.026-.215.123-.215.223l.012.169-.031-.025"/></g></pattern><path d="M8.434 46.102c-.606 2.78-2.496 3.198-4.472 3.198-.261 0-.445 0-.76-.012l-.761 3.423h-2.441l2.206-10.075c1.008-.123 1.836-.161 2.858-.161 2.138 0 3.637.54 3.457 2.872-.023.285-.016.416-.087.755m-3.436-1.965c-.228 0-.478.017-.675.028l-.8 3.597c.195.011.433.015.673.011 1.205-.015 1.808-1.231 1.907-2.52.055-.705-.301-1.116-1.105-1.116"/><polygon points="18.649,44.154 15.338,44.154 14.762,46.827 17.834,46.827 17.489,48.346 14.416,48.346 13.785,51.181 17.097,51.181 16.775,52.708 10.913,52.708 13.118,42.636 18.98,42.636"/><polygon points="118.157,44.154 115.014,44.154 114.437,46.827 117.51,46.827 117.163,48.346 114.091,48.346 113.46,51.181 116.605,51.181 116.282,52.708 110.588,52.708 112.794,42.636 118.489,42.636"/><polygon points="39.834,44.154 36.524,44.154 35.948,46.827 39.021,46.827 38.674,48.346 35.602,48.346 34.648,52.717 32.097,52.708 34.304,42.636 40.167,42.636"/><path d="M50.136 47.491l-.188.866c-.811 3.729-2.486 4.597-4.657 4.597-1.901 0-3.095-.976-2.884-3.662.033-.445.102-.922.208-1.423l.187-.866c.8-3.743 2.584-4.612 4.68-4.612 1.9 0 3.077.938 2.867 3.62-.05.474-.109.961-.213 1.48m-3.032-3.359c-.871 0-1.425 1.175-1.857 3.129l-.184.84c-.117.516-.251 1.572-.276 1.898-.069.909.244 1.209.874 1.209.879 0 1.43-1.114 1.844-3.107l.208-.99c.104-.502.253-1.516.278-1.812.066-.869-.205-1.167-.887-1.167"/><path d="M73.033 52.71h-2.444s1.292-5.722 1.445-6.278h-.021c-.249.419-2.133 3.391-2.133 3.391h-1.15s-.552-3.004-.605-3.422h-.024c-.097.556-1.355 6.31-1.355 6.31h-2.433l2.206-10.074h2.29s.965 3.945 1.043 4.367h.022c.248-.422 3.008-4.367 3.008-4.367h2.37l-2.219 10.073zM82.434 52.71l.092-2.513-1.901-.001-1.01 2.514h-2.716l4.247-10.074h4.049l-.133 10.074h-2.628zm.486-8.798h-.056c-.177.475-1.784 4.832-1.784 4.832l1.52.018s.261-4.375.32-4.85"/><path d="M96.301 52.71h-2.455s-1.121-6.022-1.179-6.415h-.033c-.089.463-1.405 6.415-1.405 6.415h-2.288l2.216-10.074h2.397s1.241 5.719 1.307 6.138h.021c.048-.352 1.321-6.138 1.321-6.138h2.303l-2.205 10.074zM108.489 44.213c-.562-.057-1.329-.11-2.024-.11-1.042 0-1.755 1.003-2.222 3.088l-.215.95c-.099.448-.218 1.057-.243 1.353-.087 1.124.284 1.707 1.108 1.707.695 0 1.479-.053 2.072-.107l-.345 1.563c-.469.161-1.782.298-2.412.298-2.107 0-3.151-.949-2.958-3.416.037-.489.124-1.03.257-1.643l.213-.948c.829-3.66 2.267-4.557 4.798-4.557.628 0 1.875.151 2.288.301l-.317 1.521zM27.545 48.695l.805 4.013h-2.464l-.752-3.456h-1.01l-.757 3.456h-2.431l2.205-10.072c.897-.08 1.815-.162 2.998-.162 1.944 0 3.479.516 3.296 2.875-.145 1.843-.865 2.724-1.89 3.346m-1.67-4.541l-.631.012-.812 3.593c.205.015.423.015.64.015 1.119 0 1.796-1.113 1.888-2.304.057-.72-.215-1.316-1.085-1.316"/><path d="M59.742 48.695l.804 4.013h-2.463l-.752-3.456h-1.01l-.756 3.456h-2.435l2.205-10.072c.898-.08 1.816-.162 3-.162 1.944 0 3.477.516 3.295 2.875-.144 1.843-.865 2.724-1.888 3.346m-1.67-4.541l-.632.012-.81 3.593c.204.015.422.015.639.015 1.117 0 1.796-1.113 1.89-2.304.055-.72-.22-1.316-1.087-1.316"/><path d="M105.579 15.696l-.288-.074c-1.344-.336-3.508-.754-5.949-.754h-7.2s-4.816 22.083-4.816 22.179c0 .755.625 1.367 1.374 1.402h5.955c4.06 0 7.249-.475 7.249-.475l1.444-6.722h-6.314l-.845 3.964c-.146.452-.603.782-1.103.782-.501 0-.921-.33-1.069-.782l1.759-8.129 8.474-.002s2.218-10.022 2.218-10.075c0-.601-.356-1.114-.889-1.314m-6.887 7.936c-.136.466-.573.812-1.085.812s-.938-.346-1.076-.812l1.171-5.318c.116-.501.547-.875 1.082-.875.533 0 .961.373 1.081.868l-1.173 5.325zM89.035 14.867l-.577.001s1.083-5.032 1.083-5.088c0-.694-.547-1.255-1.233-1.291l-4.793-.007-1.385 6.379-1.468-.001s-.254 1.978.752 3.438l-4.37 20.145 6.305-.005s2.185-.419 2.822-3.271h-2.095l3.638-16.862 2.102-.007s.441-2.093.441-2.139c0-.692-.541-1.251-1.222-1.292"/><path d="M63.18 9.782c0-.696-.546-1.257-1.23-1.294l-4.795-.005-6.469 29.959 6.309-.003s6.185-28.601 6.185-28.657"/><path d="M122.963 15.679l-.254-.068c-1.334-.352-3.536-.747-5.984-.747h-7.184s-1.955 8.985-1.951 9.085c.033 1.18.765 1.958 2.646 2.732l2.951 1.145c1.18.479 1.719.844 1.719 1.364 0 .07-1.266 6.003-1.266 6.003-.147.566-.564.807-1.099.807s-.984-.304-1.079-.807l.849-3.939h-6.308s-1.225 5.715-1.225 5.794c0 .749.587 1.355 1.326 1.399h5.96c4.063 0 7.268-.447 7.268-.447l1.859-8.627c.108-.516.24-1.034.24-1.547 0-1.073-.785-1.882-2.181-2.475l-2.895-1.254c-1.234-.554-2.152-.773-2.152-1.586 0-.036.899-4.133.899-4.133.078-.53.527-.935 1.077-.935.54 0 .986.393 1.076.903l-.834 3.979h6.306s1.157-5.254 1.157-5.329c0-.605-.385-1.118-.921-1.317"/><path d="M78.161 15.696l-.286-.074c-1.345-.336-3.509-.754-5.95-.754h-7.201s-4.816 22.083-4.816 22.179c0 .755.627 1.367 1.374 1.402h5.954c4.061 0 7.25-.475 7.25-.475l1.446-6.722h-6.315l-.846 3.964c-.147.452-.602.782-1.105.782-.501 0-.921-.33-1.066-.782l1.757-8.129 8.476-.002s2.22-10.022 2.22-10.075c0-.601-.358-1.114-.892-1.314m-6.885 7.936c-.137.466-.575.812-1.088.812-.511 0-.938-.346-1.076-.812l1.166-5.318c.116-.501.55-.875 1.084-.875.531 0 .961.373 1.078.868l-1.164 5.325zM51.802 15.689l-.287-.072c-1.344-.335-3.508-.756-5.949-.756h-.892s1.079-5.023 1.079-5.079c0-.696-.546-1.257-1.231-1.293l-4.801-.006-5.328 24.715-1.13 5.245s6.297.006 6.304.002l4.401-20.299c.168-.412.572-.702 1.042-.702.532 0 .976.37 1.094.868l-4.375 20.13c.005-.008 6.356-.003 6.356-.003s4.63-21.379 4.63-21.433c.001-.603-.38-1.114-.913-1.317"/><path d="M22.534 8.491h-8.593l-10.8 29.957h7.083l2.389-7.938h3.03l-1.071 7.938h7.083l2.06-28.721c-.025-.654-.534-1.18-1.181-1.236m-6.441 18.595h-2.453l3.112-10.254c.073-.088.18-.147.304-.147.192 0 .346.141.383.322l-1.346 10.079z"/><path fill="#EF3E42" d="M128.749 10.687c10.088-.104 17.828-2.577 17.283-5.528-.509-2.779-8.183-4.986-17.5-5.15l-.203 1.044c5.198.115 9.373.965 9.549 2.002.193 1.113-4.31 2.014-10.06 2.014l-.264-.003-.51 2.623c9.971.069 16.508-1.874 16.124-3.958-.05-.272-.229-.539-.523-.803.487.347.783.731.865 1.153.429 2.334-6.101 4.468-16.632 4.45l-.416 2.135c.752.021 1.514.027 2.287.021"/><path d="M111.919 4.446c-.119-.638.26-1.18 1.045-1.637-.477.399-.702.823-.621 1.262.35 1.867 6.333 3.357 13.547 3.58l.571-2.6c-5.128-.132-9.223-.975-9.4-1.998-.194-1.115 4.31-2.017 10.059-2.017l.225.002.224-1.038-.79.003c-10.093.103-17.832 2.576-17.29 5.527.481 2.602 7.238 4.703 15.749 5.093l.468-2.138c-7.414-.257-13.398-1.952-13.787-4.039"/><path d="M35.202 14.867l-.577.001s1.082-5.032 1.082-5.088c0-.694-.546-1.255-1.232-1.291l-4.795-.007-1.384 6.379-1.469-.001s-.255 1.978.753 3.438l-4.37 20.145 6.309-.005s2.18-.419 2.815-3.271h-2.093l3.639-16.862 2.101-.007s.443-2.093.443-2.139c-.001-.692-.543-1.251-1.222-1.292"/><path d="M128.296 17.092h-.31l-.252-.67h-.413v.67h-.293v-1.625h.706c.197 0 .341.043.432.133.093.087.138.202.138.343 0 .21-.097.352-.292.431l.284.718zm-.974-.904h.366c.104 0 .183-.021.235-.067.051-.045.077-.104.077-.182 0-.071-.025-.13-.075-.174-.051-.043-.123-.066-.215-.066h-.388v.489zM126.068 16.299c0-.852.69-1.543 1.542-1.543.853 0 1.543.691 1.543 1.543 0 .853-.69 1.542-1.543 1.542-.851 0-1.542-.69-1.542-1.542zm.24 0c0 .721.583 1.303 1.303 1.304.72-.001 1.303-.583 1.304-1.304-.001-.721-.584-1.304-1.304-1.304-.721 0-1.303.583-1.303 1.304z"/></svg>