<svg xmlns="http://www.w3.org/2000/svg" width="301.6" height="74.1" viewBox="0 0 301.6 74.1">
	<g fill="#fff">
		<path d="M107.9 34c1.2 0 2.5-.5 3.4-1.4l23.3-23.3c1.9-1.9 1.9-4.9 0-6.8-1.9-1.9-4.9-1.9-6.8 0l-23.3 23.3c-1.9 1.9-1.9 4.9 0 6.8.9.9 2.1 1.4 3.4 1.4zM72.3 2.4c-1.9-1.9-4.9-1.9-6.8 0-1.9 1.9-1.9 4.9 0 6.8l23.3 23.3c.9.9 2.2 1.4 3.4 1.4s2.5-.5 3.4-1.4c1.9-1.9 1.9-4.9 0-6.8l-23.3-23.3zM88.8 41.4l-23.3 23.3c-1.9 1.9-1.9 4.9 0 6.8.9.9 2.2 1.4 3.4 1.4 1.2 0 2.5-.5 3.4-1.4l23.3-23.3c1.9-1.9 1.9-4.9 0-6.8-1.9-1.9-4.9-1.9-6.8 0zM111.3 41.4c-1.9-1.9-4.9-1.9-6.8 0-1.9 1.9-1.9 4.9 0 6.8l23.3 23.3c.9.9 2.2 1.4 3.4 1.4s2.5-.5 3.4-1.4c1.9-1.9 1.9-4.9 0-6.8l-23.3-23.3zM46.3 62.9h-36.7v-21.3h31.9c2.7 0 4.8-2.2 4.8-4.8 0-2.7-2.2-4.8-4.8-4.8h-31.9v-20.9h36.4c2.7 0 4.8-2.2 4.8-4.8 0-2.7-2.2-4.8-4.8-4.8h-41.2c-2.6-.1-4.8 2.1-4.8 4.8v61.5c0 2.7 2.2 4.8 4.8 4.8h41.5c2.7 0 4.8-2.2 4.8-4.8s-2.1-4.9-4.8-4.9zM206.6 16.4c-2.3 1.4-3 4.3-1.7 6.6 6.5 10.8 4.8 24.5-4.1 33.4-8.9 8.9-22.6 10.6-33.4 4.1-2.3-1.4-5.2-.6-6.6 1.7-1.4 2.3-.6 5.2 1.7 6.6 5.9 3.5 12.5 5.3 19 5.3 9.6 0 19-3.7 26.2-10.9 12-12 14.3-30.6 5.6-45.2-1.4-2.3-4.4-3-6.7-1.6zM162.1 17.7c8.9-8.9 22.6-10.6 33.4-4.1 2.3 1.4 5.2.6 6.6-1.7 1.4-2.3.6-5.2-1.7-6.6-14.6-8.7-33.2-6.4-45.2 5.6s-14.3 30.6-5.6 45.2c.9 1.5 2.5 2.3 4.1 2.3.8 0 1.7-.2 2.5-.7 2.3-1.4 3-4.3 1.7-6.6-6.4-10.8-4.7-24.5 4.2-33.4zM260.2 32.3c-15.3-3.3-18-6.8-18-12.5v-.2c0-6 5.7-10.2 13.8-10.2 6.4 0 11.8 1.8 17.4 5.9.8.6 1.7.9 2.8.9 2.6 0 4.7-2.1 4.7-4.7 0-2.1-1.4-3.5-2.1-3.9-6.7-4.8-13.7-7-22.6-7-13.7 0-23.7 8.3-23.7 19.9v.2c0 13 9.6 17.8 24 20.9 11.4 2.4 17.3 5 17.3 12.2v.2c0 6.4-6 10.8-14.5 10.8-8.3 0-14.6-2.4-21.2-8-.7-.7-1.9-1.1-3-1.1-2.6 0-4.7 2.1-4.7 4.8 0 1.5.7 2.9 1.9 3.7 8 6.4 16.8 9.5 26.8 9.5 14.5 0 24.6-8.4 24.6-20.5v-.2c-.2-11-7.2-17.1-23.5-20.7z"/>
		<path d="M290.3 67.2h-1.8c-.2 0-.5-.2-.5-.5s.2-.5.5-.5h4.5c.3 0 .5.2.5.5s-.2.5-.5.5h-1.8v5.4c0 .3-.2.5-.5.5s-.5-.2-.5-.5v-5.4zm4.6-.4c0-.3.2-.5.5-.5h.1c.2 0 .3.1.4.2l2.3 3.6 2.4-3.6c.1-.2.2-.2.4-.2h.1c.2 0 .5.2.5.5v5.8c0 .3-.2.5-.5.5s-.5-.2-.5-.5v-4.5l-2 3c-.1.2-.2.3-.4.3s-.3-.1-.4-.3l-2-3v4.5c0 .3-.2.5-.5.5s-.5-.2-.5-.5v-5.8z"/>
	</g>
</svg>
