<?xml version="1.0" encoding="utf-8"?>
<!-- Generator: Adobe Illustrator 16.0.0, SVG Export Plug-In . SVG Version: 6.00 Build 0)  -->
<!DOCTYPE svg PUBLIC "-//W3C//DTD SVG 1.1//EN" "http://www.w3.org/Graphics/SVG/1.1/DTD/svg11.dtd">
<svg version="1.1" id="Layer_1" xmlns="http://www.w3.org/2000/svg" xmlns:xlink="http://www.w3.org/1999/xlink" x="0px" y="0px"
	 width="400px" height="33.33px" viewBox="0 0 400 33.33" enable-background="new 0 0 400 33.33" xml:space="preserve">
<g>
	<g>
		<g>
			<linearGradient id="SVGID_1_" gradientUnits="userSpaceOnUse" x1="59.3496" y1="0" x2="59.3496" y2="33.3301">
				<stop  offset="0" style="stop-color:#656565"/>
				<stop  offset="1" style="stop-color:#414141"/>
			</linearGradient>
			<path fill="url(#SVGID_1_)" d="M118.596,16.104c-1.654-8.679-26.531-15.574-56.75-16.069l-0.657,3.241
				c16.862,0.356,30.375,3.024,30.959,6.24C92.77,12.993,78.162,15.8,59.523,15.8h-0.846l-1.666,8.17
				c32.354,0.221,53.535-5.841,52.299-12.345c-0.172-0.828-0.751-1.683-1.71-2.502c1.585,1.101,2.543,2.305,2.808,3.607
				c1.412,7.29-19.786,13.937-53.928,13.88l-1.342,6.664c2.428,0.042,4.92,0.074,7.417,0.042
				C95.255,33.004,120.368,25.3,118.596,16.104z M9.335,12.7c1.13,5.823,20.547,10.463,43.941,11.176l1.862-8.128
				c-16.639-0.408-29.916-3.032-30.493-6.232c-0.633-3.467,13.963-6.291,32.628-6.291c0.242,0,0.471,0.003,0.719,0.003L58.722,0
				c-0.838,0-1.698,0-2.546,0.004C23.434,0.318-1.657,8.05,0.102,17.261C1.66,25.362,23.555,31.93,51.167,33.123l1.509-6.651
				C28.633,25.673,9.231,20.386,7.961,13.869c-0.388-1.996,0.85-3.68,3.4-5.104C9.812,10.023,9.088,11.333,9.335,12.7z"/>
		</g>
	</g>
	<g>
		<g>
			<linearGradient id="SVGID_2_" gradientUnits="userSpaceOnUse" x1="266.1753" y1="10.1855" x2="266.1753" y2="23.7739">
				<stop  offset="0" style="stop-color:#656565"/>
				<stop  offset="1" style="stop-color:#414141"/>
			</linearGradient>
			<path fill="url(#SVGID_2_)" d="M140.939,13.048c2.233,0,2.486,1.538,2.526,2.48h4.4c0.116-4.457-2.692-5.342-6.323-5.342
				c-5.161,0-8.019,2.51-8.964,6.795c-0.97,4.414,0.964,6.793,6.003,6.793c5.618,0,7.597-2.568,8.671-5.312h-4.38
				c-0.592,1.485-1.885,2.456-3.659,2.456c-2.56,0-2.909-1.821-2.437-3.937C137.242,14.868,138.443,13.048,140.939,13.048z
				 M159.166,10.186c-4.179,0-8.054,1.476-9.218,6.795c-1.161,5.318,2.059,6.793,6.258,6.793c4.194,0,8.063-1.476,9.223-6.793
				C166.584,11.662,163.378,10.186,159.166,10.186z M161.245,16.98c-0.586,2.686-2.287,3.937-4.42,3.937
				c-2.111,0-3.271-1.251-2.68-3.937c0.581-2.664,2.28-3.933,4.404-3.933C160.687,13.048,161.826,14.316,161.245,16.98z
				 M183.909,23.378h11.905l0.604-2.765h-7.957l0.519-2.312h7.445l0.581-2.641h-7.447l0.491-2.312h7.954l0.599-2.77h-11.904
				L183.909,23.378z M221.522,23.378h11.916l0.604-2.765H226.1l0.497-2.312h7.456l0.581-2.641h-7.459l0.519-2.312h7.947l0.61-2.77
				h-11.918L221.522,23.378z M249.765,10.578h-9.527l-2.792,12.801h3.96l0.936-4.262h3.622c1.006,0,1.537,0.353,1.104,2.371
				c-0.136,0.593-0.275,1.346-0.188,1.892h4.345c-0.348-0.62-0.245-1.433,0.123-3.962c0.202-1.386-0.232-1.872-0.937-2.126
				l0.008-0.033c1.131-0.302,2.165-1.23,2.537-2.925C253.429,12.196,252.682,10.578,249.765,10.578z M248.575,14.828
				c-0.192,0.895-0.911,1.652-1.878,1.652h-3.805l0.675-3.037h3.827C248.353,13.442,248.757,13.971,248.575,14.828z M179.136,10.578
				h-9.517l-2.81,12.801h3.974l0.926-4.262h3.634c0.998,0,1.546,0.353,1.103,2.371c-0.131,0.593-0.29,1.346-0.183,1.892h4.347
				c-0.361-0.62-0.25-1.433,0.118-3.962c0.199-1.386-0.253-1.872-0.931-2.126l0.011-0.033c1.119-0.302,2.161-1.23,2.533-2.925
				C182.797,12.196,182.049,10.578,179.136,10.578z M177.942,14.828c-0.197,0.895-0.892,1.652-1.857,1.652h-3.83l0.702-3.037h3.8
				C177.72,13.442,178.12,13.971,177.942,14.828z M299.581,10.578h-9.496l-2.801,12.801h3.965l0.915-4.262h3.636
				c0.999,0,1.535,0.353,1.095,2.371c-0.123,0.593-0.266,1.346-0.165,1.892h4.334c-0.359-0.62-0.257-1.433,0.109-3.962
				c0.225-1.386-0.222-1.872-0.914-2.126l0.008-0.033c1.131-0.302,2.153-1.23,2.521-2.925
				C303.269,12.196,302.522,10.578,299.581,10.578z M298.389,14.828c-0.17,0.895-0.874,1.652-1.858,1.652h-3.799l0.67-3.037h3.81
				C298.193,13.442,298.595,13.971,298.389,14.828z M255.196,23.378h3.96l1.086-4.949h6.86l0.606-2.77h-6.861l0.479-2.218h7.378
				l0.624-2.865h-11.342L255.196,23.378z M279.531,10.186c-4.206,0-8.074,1.476-9.243,6.795c-1.157,5.318,2.068,6.793,6.264,6.793
				c4.194,0,8.077-1.476,9.234-6.793C286.948,11.662,283.724,10.186,279.531,10.186z M281.578,16.98
				c-0.572,2.686-2.268,3.937-4.391,3.937s-3.284-1.251-2.695-3.937c0.581-2.664,2.291-3.933,4.396-3.933
				C281.033,13.048,282.174,14.316,281.578,16.98z M318.639,10.578l-4.574,8.465h-0.037l-0.854-8.465h-5.807l-2.783,12.801h3.73
				l2.104-9.582h0.017l1.047,9.582h3.262l5.211-9.582h0.033l-2.087,9.582h3.741l2.804-12.801H318.639z M352.541,18.604h-0.042
				l-3.765-8.026h-4.573l-2.799,12.801h3.845l1.762-8.077h0.038l3.938,8.077h4.384l2.782-12.801h-3.847L352.541,18.604z
				 M368.188,13.048c2.234,0,2.476,1.538,2.499,2.48h4.429c0.112-4.457-2.69-5.342-6.345-5.342c-5.154,0-8,2.51-8.956,6.795
				c-0.946,4.414,0.984,6.793,6.015,6.793c5.609,0,7.578-2.568,8.679-5.312h-4.387c-0.618,1.485-1.875,2.456-3.672,2.456
				c-2.535,0-2.889-1.821-2.435-3.937C364.47,14.868,365.688,13.048,368.188,13.048z M376.755,23.378h11.886l0.623-2.765H381.3
				l0.526-2.312h7.443l0.561-2.641h-7.442l0.505-2.312h7.966l0.576-2.77H379.55L376.755,23.378z M216.981,10.578h-8.793
				L205.4,23.378h3.957l0.936-4.262h5.009c3.201,0,4.659-2.156,5.133-4.265C220.959,12.411,220.218,10.578,216.981,10.578z
				 M216.339,14.851c-0.252,1.122-0.841,1.621-1.935,1.621h-3.531l0.698-3.248h3.529C216.203,13.224,216.579,13.724,216.339,14.851z
				 M331.955,10.505l-7.946,12.833h4.237l1.168-2.101h5.21l0.249,2.101h4.232l-2.307-12.833H331.955z M330.92,18.596l2.698-4.839
				h0.041l0.604,4.839H330.92z M399.582,11.266c-0.396-0.478-0.934-0.73-1.646-0.73c-0.699,0-1.331,0.232-1.938,0.698
				c-0.655,0.474-1.06,1.089-1.193,1.818c-0.167,0.723-0.034,1.309,0.357,1.796c0.394,0.49,0.926,0.721,1.668,0.721
				c0.713,0,1.358-0.23,1.959-0.699c0.631-0.507,1.021-1.095,1.166-1.817C400.104,12.37,399.976,11.774,399.582,11.266z
				 M399.505,13.051c-0.125,0.575-0.432,1.088-0.948,1.503c-0.521,0.392-1.038,0.589-1.649,0.589c-0.563,0-1.027-0.197-1.346-0.589
				c-0.345-0.407-0.436-0.92-0.319-1.503c0.111-0.56,0.428-1.036,0.926-1.444c0.528-0.423,1.062-0.636,1.673-0.636
				c0.567,0,1.02,0.213,1.349,0.636C399.519,12.015,399.607,12.495,399.505,13.051z M398.449,11.82
				c-0.11-0.083-0.296-0.138-0.511-0.156c-0.031-0.003-0.257-0.005-0.604-0.007c-0.344,0-0.598-0.002-0.798-0.002l-0.585,2.803
				h0.746l0.188-0.989h0.183l0.154,0.012c0.102,0.008,0.198,0.026,0.256,0.053c0.081,0.044,0.136,0.091,0.146,0.207
				c0.011,0.036,0.002,0.167-0.021,0.333c-0.03,0.166-0.043,0.288-0.035,0.385h0.727l-0.008-0.093c-0.005-0.005-0.005-0.028,0-0.061
				c0.002-0.033,0.006-0.063,0.011-0.097l0.044-0.238c0.059-0.288,0.021-0.497-0.107-0.619c-0.089-0.083-0.216-0.146-0.369-0.162
				c0.173-0.017,0.375-0.091,0.521-0.195c0.156-0.107,0.275-0.272,0.328-0.513C398.77,12.184,398.703,11.958,398.449,11.82z
				 M397.727,12.86c-0.107,0.081-0.236,0.119-0.437,0.119h-0.273l0.169-0.813h0.182c0.193,0,0.316,0.022,0.425,0.045
				c0.147,0.058,0.196,0.181,0.164,0.328C397.932,12.684,397.857,12.797,397.727,12.86z"/>
		</g>
	</g>
</g>
<g>
</g>
<g>
</g>
<g>
</g>
<g>
</g>
<g>
</g>
<g>
</g>
</svg>
