<svg xmlns="http://www.w3.org/2000/svg" width="400" height="33.33"><linearGradient id="a" gradientUnits="userSpaceOnUse" x1="59.35" x2="59.35" y2="33.33"><stop offset="0" stop-color="#656565"/><stop offset="1" stop-color="#414141"/></linearGradient><path fill="url(#a)" d="M118.596 16.104c-1.654-8.679-26.531-15.574-56.75-16.069l-.657 3.241c16.862.356 30.375 3.024 30.959 6.24.622 3.477-13.986 6.284-32.625 6.284h-.846l-1.666 8.17c32.354.221 53.535-5.841 52.299-12.345-.172-.828-.751-1.683-1.71-2.502 1.585 1.101 2.543 2.305 2.808 3.607 1.412 7.29-19.786 13.937-53.928 13.88l-1.342 6.664c2.428.042 4.92.074 7.417.042 32.7-.312 57.813-8.016 56.041-17.212zm-109.261-3.404c1.13 5.823 20.547 10.463 43.941 11.176l1.862-8.128c-16.639-.408-29.916-3.032-30.493-6.232-.633-3.467 13.963-6.291 32.628-6.291l.719.003.73-3.228c-.838 0-1.698 0-2.546.004-32.742.314-57.833 8.046-56.074 17.257 1.558 8.101 23.453 14.669 51.065 15.862l1.509-6.651c-24.043-.799-43.445-6.086-44.715-12.603-.388-1.996.85-3.68 3.4-5.104-1.549 1.258-2.273 2.568-2.026 3.935z"/><linearGradient id="b" gradientUnits="userSpaceOnUse" x1="266.175" y1="10.185" x2="266.175" y2="23.774"><stop offset="0" stop-color="#656565"/><stop offset="1" stop-color="#414141"/></linearGradient><path fill="url(#b)" d="M140.939 13.048c2.233 0 2.486 1.538 2.526 2.48h4.4c.116-4.457-2.692-5.342-6.323-5.342-5.161 0-8.019 2.51-8.964 6.795-.97 4.414.964 6.793 6.003 6.793 5.618 0 7.597-2.568 8.671-5.312h-4.38c-.592 1.485-1.885 2.456-3.659 2.456-2.56 0-2.909-1.821-2.437-3.937.466-2.113 1.667-3.933 4.163-3.933zm18.227-2.862c-4.179 0-8.054 1.476-9.218 6.795-1.161 5.318 2.059 6.793 6.258 6.793 4.194 0 8.063-1.476 9.223-6.793 1.155-5.319-2.051-6.795-6.263-6.795zm2.079 6.794c-.586 2.686-2.287 3.937-4.42 3.937-2.111 0-3.271-1.251-2.68-3.937.581-2.664 2.28-3.933 4.404-3.933 2.138.001 3.277 1.269 2.696 3.933zm22.664 6.398h11.905l.604-2.765h-7.957l.519-2.312h7.445l.581-2.641h-7.447l.491-2.312h7.954l.599-2.77h-11.904l-2.79 12.8zm37.613 0h11.916l.604-2.765h-7.942l.497-2.312h7.456l.581-2.641h-7.459l.519-2.312h7.947l.61-2.77h-11.918l-2.811 12.8zm28.243-12.8h-9.527l-2.792 12.801h3.96l.936-4.262h3.622c1.006 0 1.537.353 1.104 2.371-.136.593-.275 1.346-.188 1.892h4.345c-.348-.62-.245-1.433.123-3.962.202-1.386-.232-1.872-.937-2.126l.008-.033c1.131-.302 2.165-1.23 2.537-2.925.473-2.138-.274-3.756-3.191-3.756zm-1.19 4.25c-.192.895-.911 1.652-1.878 1.652h-3.805l.675-3.037h3.827c.959-.001 1.363.528 1.181 1.385zm-69.439-4.25h-9.517l-2.81 12.801h3.974l.926-4.262h3.634c.998 0 1.546.353 1.103 2.371-.131.593-.29 1.346-.183 1.892h4.347c-.361-.62-.25-1.433.118-3.962.199-1.386-.253-1.872-.931-2.126l.011-.033c1.119-.302 2.161-1.23 2.533-2.925.456-2.138-.292-3.756-3.205-3.756zm-1.194 4.25c-.197.895-.892 1.652-1.857 1.652h-3.83l.702-3.037h3.8c.963-.001 1.363.528 1.185 1.385zm121.639-4.25h-9.496l-2.801 12.801h3.965l.915-4.262h3.636c.999 0 1.535.353 1.095 2.371-.123.593-.266 1.346-.165 1.892h4.334c-.359-.62-.257-1.433.109-3.962.225-1.386-.222-1.872-.914-2.126l.008-.033c1.131-.302 2.153-1.23 2.521-2.925.481-2.138-.266-3.756-3.207-3.756zm-1.192 4.25c-.17.895-.874 1.652-1.858 1.652h-3.799l.67-3.037h3.81c.981-.001 1.383.528 1.177 1.385zm-43.193 8.55h3.96l1.086-4.949h6.86l.606-2.77h-6.861l.479-2.218h7.378l.624-2.865h-11.342l-2.79 12.802zm24.335-13.192c-4.206 0-8.074 1.476-9.243 6.795-1.157 5.318 2.068 6.793 6.264 6.793 4.194 0 8.077-1.476 9.234-6.793 1.162-5.319-2.062-6.795-6.255-6.795zm2.047 6.794c-.572 2.686-2.268 3.937-4.391 3.937s-3.284-1.251-2.695-3.937c.581-2.664 2.291-3.933 4.396-3.933 2.145.001 3.286 1.269 2.69 3.933zm37.061-6.402l-4.574 8.465h-.037l-.854-8.465h-5.807l-2.783 12.801h3.73l2.104-9.582h.017l1.047 9.582h3.262l5.211-9.582h.033l-2.087 9.582h3.741l2.804-12.801h-5.807zm33.902 8.026h-.042l-3.765-8.026h-4.573l-2.799 12.801h3.845l1.762-8.077h.038l3.938 8.077h4.384l2.782-12.801h-3.847l-1.723 8.026zm15.647-5.556c2.234 0 2.476 1.538 2.499 2.48h4.429c.112-4.457-2.69-5.342-6.345-5.342-5.154 0-8 2.51-8.956 6.795-.946 4.414.984 6.793 6.015 6.793 5.609 0 7.578-2.568 8.679-5.312h-4.387c-.618 1.485-1.875 2.456-3.672 2.456-2.535 0-2.889-1.821-2.435-3.937.455-2.113 1.673-3.933 4.173-3.933zm8.567 10.33h11.886l.623-2.765h-7.964l.526-2.312h7.443l.561-2.641h-7.442l.505-2.312h7.966l.576-2.77h-11.885l-2.795 12.8zm-159.774-12.8h-8.793l-2.788 12.8h3.957l.936-4.262h5.009c3.201 0 4.659-2.156 5.133-4.265.524-2.44-.217-4.273-3.454-4.273zm-.642 4.273c-.252 1.122-.841 1.621-1.935 1.621h-3.531l.698-3.248h3.529c1.103 0 1.479.5 1.239 1.627zm115.616-4.346l-7.946 12.833h4.237l1.168-2.101h5.21l.249 2.101h4.232l-2.307-12.833h-4.843zm-1.035 8.091l2.698-4.839h.041l.604 4.839h-3.343zm68.662-7.33c-.396-.478-.934-.73-1.646-.73-.699 0-1.331.232-1.938.698-.655.474-1.06 1.089-1.193 1.818-.167.723-.034 1.309.357 1.796.394.49.926.721 1.668.721.713 0 1.358-.23 1.959-.699.631-.507 1.021-1.095 1.166-1.817.149-.683.021-1.279-.373-1.787zm-.077 1.785c-.125.575-.432 1.088-.948 1.503-.521.392-1.038.589-1.649.589-.563 0-1.027-.197-1.346-.589-.345-.407-.436-.92-.319-1.503.111-.56.428-1.036.926-1.444.528-.423 1.062-.636 1.673-.636.567 0 1.02.213 1.349.636.328.408.416.888.314 1.444zm-1.056-1.231c-.11-.083-.296-.138-.511-.156l-.604-.007-.798-.002-.585 2.803h.746l.188-.989h.183l.154.012.256.053c.081.044.136.091.146.207.011.036.002.167-.021.333-.03.166-.043.288-.035.385h.727l-.008-.093v-.061l.011-.097.044-.238c.059-.288.021-.497-.107-.619-.089-.083-.216-.146-.369-.162.173-.017.375-.091.521-.195.156-.107.275-.272.328-.513.055-.297-.012-.523-.266-.661zm-.722 1.04c-.107.081-.236.119-.437.119h-.273l.169-.813h.182c.193 0 .316.022.425.045.147.058.196.181.164.328-.025.145-.1.258-.23.321z"/></svg>